<?xml version="1.0" standalone="no"?>
<!DOCTYPE svg PUBLIC "-//W3C//DTD SVG 20010904//EN"
 "http://www.w3.org/TR/2001/REC-SVG-20010904/DTD/svg10.dtd">
<svg version="1.0" xmlns="http://www.w3.org/2000/svg"
 width="1770.000000pt" height="742.000000pt" viewBox="0 0 1770.000000 742.000000"
 preserveAspectRatio="xMidYMid meet">

<g transform="translate(0.000000,742.000000) scale(0.100000,-0.100000)"
fill="#000000" stroke="none">
<path d="M0 3710 l0 -3710 8850 0 8850 0 0 3710 0 3710 -2072 -2 -2072 -3 -8
-32 c-5 -18 -13 -35 -20 -39 -14 -9 -48 31 -48 57 0 18 -11 19 -235 19 -194 0
-235 -2 -235 -14 0 -19 -22 -26 -81 -26 -53 0 -59 5 -31 26 14 11 -181 13
-1173 11 -1160 -2 -1190 -2 -1190 -21 0 -21 16 -32 58 -41 33 -7 37 -43 7 -70
-14 -12 -18 -25 -14 -42 9 -34 -22 -57 -51 -39 -11 7 -43 16 -71 19 -58 7 -79
-7 -93 -59 -9 -37 -49 -53 -91 -37 -24 9 -32 8 -46 -8 -34 -37 -94 -14 -94 36
0 23 3 24 63 21 38 -2 72 2 89 10 34 18 46 51 23 68 -14 10 -15 16 -6 34 12
22 51 31 51 12 0 -24 23 -6 65 53 l46 62 -45 3 c-35 2 -50 -2 -65 -17 -26 -26
-48 -27 -56 -1 -6 19 -15 20 -151 20 l-144 0 6 -39 c5 -30 3 -39 -10 -44 -13
-5 -16 1 -16 38 l0 45 -244 0 c-223 0 -244 -1 -251 -17 -6 -17 -7 -17 -19 0
-11 14 -30 17 -132 17 -69 0 -113 -4 -106 -9 22 -13 11 -56 -15 -59 -20 -3
-23 1 -23 32 l0 36 -639 0 -639 0 -7 -65 c-9 -76 -18 -77 -21 -2 -2 28 -3 55
-3 60 -1 4 -73 7 -161 7 l-160 0 -31 -32 -31 -33 6 33 6 32 -3760 0 -3760 0 0
-3710z m9500 3666 c0 -11 -19 -15 -25 -6 -3 5 1 10 9 10 9 0 16 -2 16 -4z
m3290 -6 c0 -13 -43 -30 -76 -30 -28 0 -32 15 -6 29 22 14 82 14 82 1z m-2900
-15 c0 -7 -40 -81 -41 -75 0 3 -2 16 -5 29 -5 26 11 51 32 51 8 0 14 -2 14 -5z
m-386 -45 c10 -22 50 -73 88 -115 62 -66 71 -73 84 -60 22 22 34 18 34 -9 0
-28 24 -78 33 -69 4 3 7 1 7 -6 0 -8 7 -11 15 -7 18 7 19 2 3 -24 -10 -16 -9
-23 12 -45 27 -29 50 -33 50 -8 0 31 18 0 22 -37 l3 -35 55 3 c94 5 113 8 184
30 37 12 82 22 100 22 17 0 57 9 88 20 44 15 76 19 145 16 48 -1 95 1 103 5
50 27 145 59 175 59 35 0 82 9 185 36 30 8 93 17 140 19 90 5 226 32 299 59
63 24 121 7 121 -35 0 -23 -26 -34 -104 -43 -32 -3 -88 -18 -123 -32 -43 -17
-73 -23 -92 -19 -16 3 -82 -5 -152 -19 -196 -39 -397 -69 -432 -63 -18 2 -43
-1 -57 -8 -14 -7 -43 -16 -65 -20 -22 -4 -43 -9 -47 -11 -4 -2 2 -25 13 -50
23 -52 20 -63 -15 -44 -14 7 -35 10 -48 7 -21 -6 -23 -3 -23 26 0 32 -1 32
-45 30 -142 -5 -326 -31 -348 -49 -8 -6 24 -53 78 -114 103 -118 150 -182 150
-201 0 -33 -26 -21 -66 30 -111 141 -143 180 -185 225 l-46 50 -129 -26 c-71
-15 -152 -30 -181 -33 -49 -6 -52 -8 -55 -38 -4 -41 -24 -45 -32 -6 -6 30 -8
31 -43 25 -96 -17 -175 -42 -184 -58 -12 -22 -31 -24 -23 -3 12 30 -77 10
-102 -23 -13 -16 -13 -16 -14 1 0 16 -16 22 -48 18 -10 -2 -11 3 -3 17 15 28
31 38 83 50 32 8 59 25 88 53 45 45 60 44 43 -2 l-12 -31 42 7 c23 4 50 14 60
23 10 9 17 11 17 4 0 -25 99 23 110 54 9 22 21 34 19 17 -1 -5 2 -18 6 -31 6
-19 12 -22 34 -17 14 4 48 10 75 15 26 4 52 14 57 21 7 11 11 12 17 1 10 -16
61 -12 80 5 7 7 19 10 27 7 20 -8 18 6 -4 35 l-19 25 -90 -12 c-50 -7 -99 -15
-109 -19 -14 -5 -16 -3 -6 7 6 7 50 17 97 23 47 6 86 14 86 18 0 4 -21 28 -47
53 -52 50 -85 57 -88 19 -1 -13 -5 -26 -8 -30 -13 -12 -17 3 -11 35 5 23 12
32 26 32 15 0 18 5 13 23 -10 30 -75 107 -115 135 -39 26 -70 28 -133 6 -36
-12 -45 -20 -44 -37 3 -71 -4 -91 -43 -129 -56 -52 -83 -49 -124 14 -13 20
-16 38 -12 62 5 26 3 35 -10 40 -9 3 -19 4 -23 2 -8 -5 -184 -38 -224 -41 -15
-2 -34 -8 -41 -14 -7 -6 -33 -13 -57 -16 -69 -9 -91 -12 -139 -25 -25 -6 -52
-12 -60 -14 -9 -1 -20 -5 -26 -9 -7 -4 -33 -9 -60 -12 -49 -6 -187 -36 -384
-82 -58 -14 -130 -30 -160 -37 l-55 -12 -3 -50 c-2 -27 -9 -52 -15 -56 -9 -6
-9 -8 1 -8 10 0 11 -30 7 -141 l-6 -141 28 7 c15 4 55 11 88 15 33 4 67 11 75
14 8 3 21 2 29 -3 12 -8 12 -12 2 -25 -8 -9 -22 -16 -32 -16 -11 0 -19 -4 -19
-8 0 -4 -12 -7 -27 -7 -16 1 -32 -1 -38 -4 -5 -3 -19 -7 -30 -8 -73 -8 -70 -6
-77 -69 -3 -32 -5 -61 -3 -62 2 -2 27 1 57 7 29 6 116 22 193 36 77 14 187 35
245 46 58 11 123 22 145 25 22 3 99 16 170 29 72 14 193 36 270 50 77 14 162
30 188 36 86 17 89 15 131 -58 21 -38 64 -106 95 -153 l56 -85 6 60 c7 73 9
71 15 -25 5 -68 10 -84 59 -171 67 -119 76 -128 105 -99 16 16 25 18 40 10 14
-7 33 -7 65 1 25 6 64 9 86 6 28 -4 53 1 82 14 23 10 61 19 84 19 23 0 95 7
160 15 92 13 123 20 140 37 15 14 23 17 23 8 0 -13 -5 -13 245 8 44 4 87 12
95 17 8 5 58 13 110 17 52 5 113 10 135 12 22 3 60 7 85 10 25 2 59 11 75 20
52 27 125 19 125 -14 0 -24 -21 -31 -120 -41 -119 -11 -153 -17 -165 -30 -7
-8 0 -10 25 -9 57 3 62 1 58 -22 -2 -19 -12 -24 -57 -31 -65 -11 -82 0 -58 36
16 24 16 25 -16 30 -18 2 -43 0 -57 -5 -14 -5 -65 -13 -115 -18 -107 -9 -222
-27 -285 -42 -25 -6 -88 -15 -140 -18 -52 -4 -150 -17 -218 -29 -86 -16 -131
-20 -150 -14 -18 7 -35 5 -52 -3 -13 -7 -49 -16 -80 -19 -30 -4 -67 -11 -83
-17 -19 -7 -31 -7 -40 1 -8 6 -16 8 -19 5 -7 -6 -87 70 -111 105 -9 14 -19 22
-22 19 -6 -6 -19 -304 -15 -343 4 -33 3 -62 -4 -250 -4 -99 -8 -232 -11 -295
-2 -63 -6 -178 -9 -255 -3 -77 -7 -178 -8 -225 l-3 -85 82 -3 c75 -3 82 -1 88
18 6 20 8 21 26 4 17 -15 38 -16 226 -9 313 10 391 18 408 41 10 12 13 30 10
49 -8 46 -55 133 -97 179 l-37 41 -1 -55 c0 -63 -10 -83 -33 -74 -20 7 -21 18
-6 46 17 31 18 86 3 142 -8 28 -14 72 -14 98 0 43 -10 63 -120 232 -66 102
-129 203 -140 223 -11 21 -45 72 -75 113 -30 41 -54 80 -55 86 0 6 -18 35 -40
64 -38 50 -54 110 -31 110 6 0 27 -26 47 -57 91 -142 148 -230 212 -325 17
-26 32 -50 32 -53 0 -7 102 -167 131 -205 50 -65 87 -145 100 -210 10 -54 22
-78 70 -141 66 -88 101 -154 118 -224 7 -27 18 -53 24 -57 21 -13 60 -9 79 9
16 14 23 15 38 5 11 -7 28 -12 39 -12 22 0 36 -29 21 -44 -7 -7 -49 -10 -105
-9 -52 1 -97 -3 -101 -8 -3 -6 -41 -7 -92 -4 -48 4 -93 2 -101 -3 -10 -7 -14
-68 -18 -273 -3 -145 -5 -303 -5 -351 1 -48 -3 -90 -7 -92 -4 -3 -7 -67 -5
-143 1 -76 -3 -266 -11 -423 -9 -198 -10 -300 -3 -335 13 -68 13 -65 4 -106
-5 -23 -4 -45 3 -57 8 -14 7 -24 -4 -38 -8 -11 -15 -35 -15 -55 0 -19 -6 -43
-13 -53 -22 -29 -41 4 -33 55 9 58 -4 70 -68 63 -53 -6 -146 18 -116 30 8 3
28 10 44 16 26 10 28 13 20 48 -14 62 -9 101 14 125 46 45 48 -3 6 -144 -5
-20 42 -42 78 -37 20 3 23 9 24 48 0 25 4 74 7 110 4 36 10 189 13 340 3 151
6 300 8 330 2 30 6 138 9 240 4 102 9 239 12 304 6 112 5 121 -14 135 -29 23
-32 73 -5 85 18 8 24 23 32 90 11 89 7 100 -38 91 -14 -2 -144 -7 -290 -11
-232 -5 -292 -7 -322 -13 -14 -2 -18 -99 -29 -720 -9 -483 -10 -636 -1 -639 7
-2 12 -10 12 -18 0 -9 -4 -13 -9 -10 -5 3 -11 -22 -15 -57 -15 -156 -18 -227
-10 -227 22 0 64 56 64 85 0 30 15 55 32 55 14 0 9 -38 -7 -54 -8 -8 -15 -27
-15 -42 0 -38 -97 -129 -119 -111 -8 7 -59 13 -125 15 -61 2 -115 8 -121 12
-11 9 -82 17 -88 10 -3 -3 -8 -126 -11 -275 -9 -385 -17 -608 -22 -617 -7 -11
32 -28 64 -28 41 0 94 -20 89 -34 -4 -11 -40 -12 -115 0 l-43 6 1 -93 c2 -323
-5 -414 -30 -414 -10 0 -15 9 -14 25 1 14 5 129 9 255 l7 231 -89 17 c-50 9
-105 17 -125 17 -19 0 -38 3 -41 6 -4 4 -19 8 -34 10 -29 3 -68 11 -68 14 0 1
-11 3 -25 4 -28 3 -92 14 -130 21 -14 3 -43 8 -65 10 -73 9 -95 16 -95 31 0
14 41 20 54 7 3 -4 14 -8 24 -9 9 -2 31 -6 47 -8 17 -3 55 -8 85 -11 30 -3 66
-8 80 -11 14 -2 36 -6 50 -9 40 -8 308 -45 324 -45 11 0 15 54 20 308 3 169 9
371 12 450 3 78 3 142 0 142 -2 0 -11 3 -20 6 -11 4 -18 -5 -25 -34 -14 -50
-36 -69 -87 -76 -46 -5 -68 6 -116 58 -24 27 -28 39 -26 84 1 29 -4 58 -10 64
-18 18 -14 32 4 17 13 -10 17 -10 25 2 5 8 9 19 9 24 0 18 63 35 105 28 49 -7
93 -46 101 -89 5 -27 29 -52 40 -42 1 2 5 107 8 233 8 308 17 475 25 475 24
-1 33 -20 28 -61 -3 -24 -9 -174 -13 -334 -3 -159 -8 -293 -11 -298 -8 -13 51
-29 88 -23 23 4 51 0 73 -9 20 -8 66 -15 104 -15 l69 0 7 46 c3 26 6 68 6 93
0 26 5 52 12 59 9 9 9 12 -1 12 -9 0 -11 25 -7 108 12 247 17 357 21 542 3
107 8 227 10 265 2 39 1 93 -4 121 -4 28 -4 60 -1 70 11 30 20 373 10 379 -9
5 -31 -22 -113 -134 -46 -64 -61 -63 -34 1 33 81 98 172 127 178 l25 6 7 169
c6 167 27 818 33 1085 2 74 7 165 10 202 l7 68 -69 102 c-38 57 -86 131 -106
164 -20 34 -46 64 -57 67 -37 9 -100 -5 -115 -26 -12 -17 -17 -18 -29 -8 -9 8
-31 11 -53 9 -60 -8 -307 -49 -323 -55 -8 -3 -28 -7 -45 -9 -16 -2 -41 -6 -55
-8 -65 -12 -106 -18 -120 -18 -8 -1 -21 -5 -27 -11 -7 -5 -13 -6 -13 -2 0 4
-6 3 -12 -2 -7 -5 -31 -10 -53 -12 -22 -1 -62 -6 -90 -11 -27 -6 -66 -12 -85
-14 -19 -3 -59 -10 -89 -15 -29 -6 -57 -8 -62 -5 -5 2 -19 -1 -31 -8 -13 -6
-43 -14 -67 -15 -52 -4 -53 -4 -55 -37 -1 -31 -26 -35 -33 -6 -5 18 -11 20
-52 15 -97 -10 -210 -32 -223 -42 -7 -6 -28 -11 -46 -11 -17 0 -41 -4 -53 -7
-20 -7 -116 -23 -269 -47 -131 -20 -215 -44 -211 -59 3 -8 4 -26 3 -41 -2 -37
10 -42 68 -28 35 8 54 9 69 1 11 -6 22 -7 25 -3 9 15 118 40 271 62 83 12 323
51 535 87 212 36 437 73 500 83 64 11 129 24 145 30 17 7 53 13 80 15 61 4
181 20 215 29 14 3 39 8 55 10 61 8 97 19 102 32 3 8 10 11 15 8 10 -6 5 -406
-7 -649 -2 -44 -6 -190 -10 -325 -3 -135 -8 -335 -10 -445 -3 -110 -8 -258
-11 -330 -3 -71 -7 -192 -8 -267 l-3 -138 33 0 c30 0 35 5 58 54 22 46 50 75
62 63 6 -6 -35 -118 -52 -145 -13 -19 -22 -23 -57 -20 l-42 3 -6 -105 c-4 -58
-7 -129 -8 -157 -1 -42 -4 -53 -17 -53 -15 0 -16 18 -12 160 l4 160 -43 0
c-38 0 -43 -3 -43 -22 0 -13 -4 -18 -8 -13 -21 30 -53 34 -213 30 l-162 -5 -2
-82 c-3 -115 -30 -170 -72 -153 -25 10 -367 18 -420 10 -39 -6 -43 -9 -37 -28
12 -42 36 -59 71 -52 24 4 33 2 33 -7 0 -9 3 -9 8 -2 9 14 92 5 92 -10 0 -6 4
-5 9 3 10 16 111 18 152 3 13 -5 40 -5 63 0 22 5 49 7 61 4 11 -3 175 -8 365
-11 190 -3 360 -8 378 -11 39 -6 42 -30 5 -38 -28 -5 -57 -5 -398 9 -191 8
-279 11 -577 20 -173 5 -208 4 -208 -7 0 -8 4 -18 9 -23 5 -6 33 -55 61 -110
29 -55 73 -136 97 -179 44 -78 66 -130 57 -139 -9 -8 -11 -377 -2 -377 8 0 12
16 9 34 -1 5 4 6 12 3 10 -4 13 1 9 20 -6 30 11 43 55 43 24 0 33 -5 38 -22 4
-13 13 -38 22 -56 15 -35 6 -62 -22 -62 -7 0 -18 -7 -25 -15 -11 -13 -16 -13
-42 1 -16 8 -32 22 -35 30 -5 14 -32 20 -34 7 -1 -10 -8 -312 -9 -381 l0 -54
-47 5 c-27 3 -73 10 -103 17 -30 6 -83 13 -117 15 -64 3 -83 9 -83 25 0 14 32
17 70 7 19 -5 55 -10 80 -11 25 -2 73 -6 108 -11 70 -9 64 -16 67 85 1 30 3
110 5 178 3 97 1 125 -9 132 -8 4 -20 6 -27 3 -6 -2 -15 1 -19 6 -3 6 -12 8
-18 4 -30 -18 -97 -9 -97 14 0 15 45 13 131 -6 l37 -8 6 46 c3 25 6 98 6 162
-1 63 4 127 9 141 7 20 6 29 -4 38 -7 6 -16 23 -20 38 -3 15 -26 61 -49 102
-24 41 -65 116 -91 165 -71 137 -86 153 -137 153 -24 0 -66 1 -94 2 -27 1 -60
-1 -72 -4 -12 -4 -30 -3 -40 3 -10 5 -23 7 -28 3 -5 -4 -36 -49 -68 -99 -32
-51 -61 -93 -65 -93 -4 0 -12 -14 -18 -31 -11 -28 -33 -33 -33 -8 0 6 5 7 12
3 7 -4 8 -3 4 5 -4 6 2 23 13 37 12 15 21 33 21 40 0 16 14 42 53 98 15 21 25
41 23 43 -2 3 -102 6 -221 9 -119 2 -221 6 -225 9 -5 3 -8 19 -8 36 1 20 4 26
9 17 6 -9 36 -14 91 -15 46 -1 151 -5 233 -8 l151 -6 49 63 50 63 2 170 c2 94
7 256 12 360 4 105 4 197 0 206 -5 9 -5 20 -1 24 4 3 7 39 8 78 0 40 4 153 7
252 12 300 16 430 23 659 l7 219 -44 -8 c-24 -4 -55 -9 -69 -10 -14 -2 -39 -8
-57 -13 -17 -6 -33 -8 -35 -6 -3 2 -40 -3 -84 -12 -43 -8 -110 -19 -149 -25
-113 -16 -126 -19 -135 -24 -5 -3 -11 -1 -14 4 -4 6 -17 4 -34 -5 -36 -19 -92
-19 -92 1 0 18 31 35 64 35 14 0 34 9 44 20 16 17 21 18 31 7 8 -11 23 -12 63
-5 29 4 143 21 253 38 110 16 215 34 233 41 29 10 32 15 32 51 l0 40 -62 -7
c-35 -4 -79 -10 -98 -15 -19 -4 -69 -13 -110 -20 -41 -7 -120 -21 -175 -32
-55 -10 -134 -22 -175 -25 -41 -3 -79 -9 -85 -13 -10 -8 -35 -13 -130 -25 -27
-4 -72 -12 -100 -20 -57 -15 -210 -41 -300 -51 -33 -3 -66 -11 -73 -17 -8 -6
-33 -10 -56 -8 -24 1 -63 -5 -87 -13 -24 -9 -72 -16 -107 -16 -54 0 -67 -4
-88 -25 -14 -14 -22 -30 -19 -35 8 -13 -13 -229 -25 -249 -8 -14 -9 -14 -13
-1 -8 22 -19 93 -18 110 4 106 25 220 41 230 7 4 27 8 44 8 17 0 83 10 146 22
63 12 149 25 190 30 41 5 111 16 155 24 44 8 94 17 110 20 52 8 155 32 161 38
7 7 -24 70 -39 80 -6 3 -21 2 -34 -3 -13 -5 -40 -8 -61 -8 -58 0 -125 -12
-147 -27 -11 -8 -42 -14 -70 -14 -27 0 -68 -7 -90 -15 -55 -20 -165 -20 -165
0 0 18 49 32 160 46 47 5 96 14 110 19 14 4 59 13 100 20 143 23 162 36 118
78 -17 15 -36 21 -73 21 -110 0 -173 -5 -230 -17 -85 -18 -140 -29 -220 -43
-38 -6 -91 -18 -116 -26 -70 -21 -103 2 -60 41 15 14 29 16 64 11 31 -5 61 -2
94 9 48 16 123 73 123 94 0 6 11 19 24 27 31 20 38 39 26 69 -10 27 11 66 35
66 17 0 35 -31 35 -60 0 -49 68 -32 95 24 20 42 43 63 54 50 4 -5 13 -28 20
-52 13 -46 7 -63 -29 -87 -16 -11 -82 -24 -142 -29 -37 -3 -68 -20 -68 -38 0
-10 9 -9 105 12 28 6 79 12 115 14 36 1 71 5 77 9 7 4 27 1 46 -6 28 -12 37
-12 58 -1 13 7 40 13 60 14 19 0 44 7 55 15 25 19 138 21 132 3 -5 -15 -105
-40 -129 -33 -8 3 -34 -4 -57 -15 -22 -11 -46 -20 -52 -20 -17 0 -12 -13 21
-54 30 -36 34 -37 78 -32 57 6 130 19 241 41 197 39 362 68 515 90 11 1 27 5
35 8 8 3 27 8 43 11 25 6 27 10 27 61 l0 55 -33 0 c-18 0 -38 -5 -45 -12 -9
-9 -12 -9 -12 0 0 8 -5 9 -17 3 -35 -18 -126 -32 -133 -20 -5 7 -9 6 -13 -4
-3 -9 -34 -19 -84 -27 -43 -6 -82 -15 -88 -18 -5 -4 -19 -8 -30 -9 -97 -9
-152 -17 -160 -23 -23 -17 -63 -20 -75 -5 -7 9 -10 18 -7 21 8 9 106 34 197
50 47 9 105 20 130 25 64 14 161 30 190 33 14 1 30 4 35 8 6 4 39 10 73 14 34
3 64 10 67 14 5 8 12 137 17 290 l3 105 -40 -3 c-22 -2 -44 -8 -49 -13 -6 -5
-19 -9 -30 -9 -43 0 -232 -53 -245 -69 -10 -12 -14 -13 -18 -3 -5 14 -39 10
-128 -13 -27 -7 -62 -16 -77 -19 -15 -3 -30 -15 -33 -26 -11 -36 -40 -43 -82
-20 -27 14 -47 18 -73 14 -51 -9 -62 -18 -74 -55 -9 -28 -17 -35 -43 -37 -23
-2 -34 2 -42 15 -11 22 -79 25 -104 5 -9 -8 -29 -10 -53 -7 -48 8 -161 -8
-206 -28 -18 -9 -57 -17 -86 -20 -42 -3 -60 -11 -85 -34 -41 -40 -65 -46 -101
-28 -35 19 -64 19 -96 0 -14 -8 -42 -14 -63 -15 -45 0 -77 -15 -77 -35 0 -22
-37 -55 -61 -55 -13 0 -25 11 -35 35 -8 19 -17 35 -20 35 -4 0 -22 -13 -41
-30 -40 -36 -58 -38 -74 -8 -10 19 -8 25 16 46 19 16 35 22 49 17 43 -13 52
-11 88 13 20 13 50 24 65 24 23 0 172 30 220 44 7 1 15 20 18 41 9 56 27 86
59 98 24 8 30 6 46 -15 10 -14 21 -39 25 -57 5 -29 10 -33 38 -33 18 0 44 6
58 14 14 7 50 16 80 20 63 8 130 29 164 52 13 9 39 14 59 13 28 -3 39 2 56 24
13 16 26 24 33 20 7 -4 37 -8 67 -10 181 -9 163 -11 179 22 33 70 75 85 109
38 22 -30 12 -31 202 11 36 8 130 28 210 45 216 46 200 34 201 155 0 55 4 119
8 141 7 38 8 39 16 15 5 -14 8 -52 6 -85 -7 -168 -7 -170 9 -168 19 2 135 25
265 54 55 12 109 23 120 24 11 2 20 4 20 5 0 1 11 3 25 5 14 2 43 10 65 18 36
13 41 18 46 56 10 74 66 122 106 90 11 -10 14 -27 11 -66 -3 -29 -3 -53 -2
-53 2 0 47 11 101 24 158 39 272 63 373 81 52 9 102 21 110 26 64 38 92 49
115 43 14 -3 23 -9 20 -13 -2 -4 32 0 77 9 82 18 112 37 101 66 -12 32 14 11
31 -26z m3062 29 c11 -19 -13 -32 -77 -41 -33 -4 -81 -17 -106 -28 -63 -28
-216 -29 -211 -3 6 30 58 47 163 54 55 4 118 12 140 17 56 13 83 14 91 1z
m-5076 -29 c0 -11 -7 -23 -15 -27 -21 -8 -28 1 -20 26 8 27 35 27 35 1z m3480
-45 c0 -26 -13 -45 -30 -45 -25 0 -34 29 -14 51 17 19 44 15 44 -6z m-6050 -9
c0 -15 -24 -28 -34 -19 -13 14 -5 33 14 33 11 0 20 -6 20 -14z m2405 -14 c0
-18 -20 -15 -23 4 -3 10 1 15 10 12 7 -3 13 -10 13 -16z m113 -8 c-4 -20 -34
-41 -44 -31 -8 8 24 47 38 47 5 0 8 -7 6 -16z m4460 -16 c6 -32 -43 -48 -209
-72 -161 -24 -193 -24 -186 -2 6 18 45 33 172 65 134 33 218 37 223 9z m-2055
-19 c-2 -41 -9 -63 -21 -67 -7 -2 -10 -13 -6 -27 9 -35 -12 -39 -26 -4 -9 21
-10 33 -3 37 6 4 13 17 17 30 4 12 12 22 18 22 6 0 8 9 5 21 -3 13 -1 19 6 16
7 -2 11 -15 10 -28z m-2465 -12 c4 -19 -40 -50 -65 -45 -20 4 -22 56 -2 68 17
11 64 -4 67 -23z m-142 -53 c-26 -18 -46 -18 -46 1 0 19 41 37 55 23 7 -6 3
-14 -9 -24z m-68 7 c20 -12 -2 -24 -78 -45 -36 -10 -93 -26 -128 -37 -34 -10
-71 -19 -81 -19 -11 0 -40 -9 -65 -19 -25 -11 -67 -20 -93 -20 -26 0 -68 -7
-93 -16 -68 -25 -148 -45 -179 -45 -16 0 -34 -7 -41 -15 -7 -8 -24 -15 -39
-15 -14 0 -37 -6 -51 -13 -15 -8 -53 -17 -87 -20 -33 -4 -85 -16 -114 -28 -30
-12 -75 -23 -101 -24 -30 -2 -65 -13 -94 -30 -38 -22 -54 -26 -89 -22 -31 5
-51 1 -78 -13 -41 -22 -72 -26 -83 -9 -13 22 30 49 85 53 29 3 65 13 79 22 17
11 50 19 85 20 43 2 69 9 96 27 26 18 46 23 66 20 25 -5 87 10 258 63 26 8 52
12 58 8 6 -3 27 0 47 9 64 25 107 37 138 37 27 0 212 52 289 82 17 6 50 12 75
13 44 2 125 19 165 36 26 10 37 10 53 0z m7024 -8 c10 -9 18 -20 18 -25 0 -22
-54 -118 -67 -118 -17 0 -53 58 -53 86 0 25 45 74 68 74 9 0 24 -7 34 -17z
m-3757 -3 c4 -6 -5 -10 -20 -10 -15 0 -24 4 -20 10 3 6 12 10 20 10 8 0 17 -4
20 -10z m-941 -110 c-7 -70 -13 -92 -24 -85 -16 10 -22 110 -10 156 l13 44 13
-30 c9 -19 12 -49 8 -85z m1052 84 c-5 -14 -9 -15 -19 -5 -9 9 -9 14 3 21 18
11 24 6 16 -16z m-989 -54 c-5 -31 -17 -36 -17 -7 0 15 4 27 10 27 5 0 9 -9 7
-20z m4004 -1 c16 -11 29 -26 29 -33 0 -6 -20 -32 -45 -56 l-45 -44 -35 34
c-19 19 -35 37 -35 40 0 3 14 22 31 43 35 42 58 46 100 16z m-4173 -33 c2 -28
-7 -33 -27 -13 -11 10 -13 9 -8 -5 4 -12 -1 -23 -17 -33 -13 -9 -26 -25 -29
-36 -7 -27 -27 -15 -27 16 0 20 5 24 23 22 17 -2 23 4 25 26 2 15 8 27 13 27
5 0 9 9 9 20 0 31 35 9 38 -24z m-74 -21 c-4 -8 -8 -15 -10 -15 -2 0 -4 7 -4
15 0 8 4 15 10 15 5 0 7 -7 4 -15z m3982 -10 c19 -15 19 -15 -4 -35 -13 -11
-40 -22 -60 -25 -20 -4 -61 -13 -89 -21 -60 -16 -246 -9 -240 9 5 15 94 45
137 47 19 1 64 9 100 19 83 23 131 25 156 6z m-6409 -11 c2 -7 -7 -24 -21 -39
-14 -15 -27 -32 -29 -38 -5 -16 -37 0 -37 18 0 27 43 76 64 73 11 -2 21 -8 23
-14z m2593 -64 c0 -5 -4 -10 -10 -10 -5 0 -10 5 -10 10 0 6 5 10 10 10 6 0 10
-4 10 -10z m3374 1 c18 -7 16 -9 -14 -25 -41 -20 -153 -45 -235 -52 -65 -6
-145 3 -145 15 0 11 90 41 125 42 17 0 57 6 90 14 67 15 150 18 179 6z m-3737
-33 c-3 -7 -5 -2 -5 12 0 14 2 19 5 13 2 -7 2 -19 0 -25z m2302 10 c55 -33 56
-42 5 -55 -32 -8 -56 -8 -82 -1 -20 6 -61 7 -92 4 -70 -8 -92 4 -66 33 14 15
32 21 65 22 25 1 60 5 76 9 48 12 56 11 94 -12z m941 -48 c12 -7 11 -12 -5
-30 -17 -19 -27 -21 -71 -16 -27 3 -65 1 -84 -4 -22 -6 -38 -6 -44 0 -14 14
-6 19 70 39 81 21 113 24 134 11z m-1423 -25 c26 20 43 18 43 -5 0 -22 -31
-43 -53 -34 -8 3 -31 -4 -51 -15 -20 -12 -45 -21 -55 -21 -32 0 -52 -12 -62
-36 -5 -14 -17 -24 -27 -24 -10 0 -27 -9 -36 -19 -26 -29 -48 -16 -40 24 5 31
4 32 -19 28 -19 -4 -28 1 -37 18 -11 19 -10 24 6 36 10 7 24 13 31 13 7 0 28
8 48 17 28 13 40 15 54 6 14 -9 25 -8 44 2 40 21 59 22 99 9 30 -10 40 -10 55
1z m1169 -10 c19 -15 19 -15 -5 -35 -30 -26 -151 -30 -151 -5 0 42 115 71 156
40z m-3536 -36 c14 -24 16 -65 5 -98 -7 -23 -6 -23 41 -16 27 4 52 12 55 17 4
7 9 6 13 -1 4 -6 11 -9 16 -6 15 9 164 35 202 35 29 0 36 -3 32 -15 -5 -13
-31 -26 -59 -30 -5 -1 -12 -3 -15 -4 -18 -8 -111 -24 -140 -23 -13 0 -35 -8
-48 -19 -14 -10 -20 -19 -13 -19 6 0 11 -4 11 -10 0 -5 -9 -10 -21 -10 -15 0
-19 5 -15 15 3 9 0 15 -9 15 -8 0 -15 4 -15 9 0 12 -18 8 -59 -13 -37 -20 -81
-15 -81 10 0 9 -6 14 -12 11 -7 -2 -12 -10 -10 -17 7 -30 -8 -45 -47 -46 -38
-1 -40 0 -36 29 5 36 19 47 63 47 30 0 32 2 33 38 2 53 10 81 32 110 16 20 65
15 77 -9z m3310 6 c28 -15 28 -15 23 -88 -6 -73 -5 -73 26 -100 23 -19 44 -27
71 -27 44 0 49 -5 55 -56 7 -51 13 -57 51 -51 27 5 38 1 56 -19 13 -14 45 -41
71 -61 51 -38 97 -97 97 -125 0 -24 -34 -31 -69 -13 -17 8 -61 47 -99 85 -50
51 -76 70 -95 70 -41 0 -69 18 -106 67 -18 25 -48 51 -67 59 -21 9 -39 26 -45
42 -33 82 -53 122 -66 126 -8 4 -32 3 -54 0 -26 -4 -49 -2 -65 6 -21 12 -30
11 -60 -3 -26 -13 -40 -14 -54 -7 -15 8 -27 5 -52 -10 -18 -11 -46 -20 -63
-20 -30 0 -141 -19 -265 -45 -36 -8 -94 -17 -130 -20 -36 -3 -103 -11 -150
-18 -75 -11 -85 -15 -88 -34 -4 -26 -27 -47 -42 -38 -5 3 -10 18 -10 32 0 22
-3 24 -22 18 -13 -4 -39 -7 -58 -7 -19 1 -41 -5 -50 -13 -8 -7 -28 -15 -45
-17 -16 -1 -30 -9 -30 -16 0 -19 -27 -33 -42 -20 -7 6 -10 14 -7 19 7 12 -16
11 -93 -2 -36 -6 -66 -16 -68 -23 -24 -66 -24 -67 -45 -56 -12 6 -20 21 -20
35 0 20 -5 25 -24 25 -32 0 -56 10 -56 23 0 19 33 47 54 47 14 0 35 17 60 50
21 28 44 50 52 50 17 0 19 -41 2 -58 -19 -19 -8 -20 82 -10 47 5 112 11 145
15 33 3 67 12 77 20 12 11 28 13 62 8 35 -6 68 -1 129 16 99 27 106 33 82 59
-18 20 -18 20 8 20 21 0 27 -5 27 -21 0 -20 3 -20 118 -15 76 3 129 11 148 21
17 8 44 16 60 16 16 1 66 6 112 12 73 9 84 8 101 -7 14 -13 24 -15 38 -8 10 6
41 14 68 20 28 6 86 22 130 35 96 31 98 31 135 12z m-5683 -31 c8 -20 -8 -36
-26 -25 -15 10 -8 41 9 41 6 0 13 -7 17 -16z m-640 -9 c3 -9 -3 -25 -13 -36
-15 -17 -27 -20 -61 -16 -30 3 -46 0 -54 -10 -22 -26 -48 -34 -69 -23 -46 25
-3 76 56 67 28 -5 43 -1 62 13 30 24 70 26 79 5z m2432 -35 c10 -24 10 -34 1
-45 -19 -23 -37 -1 -32 40 5 43 13 44 31 5z m2911 10 c13 -8 13 -10 -2 -10 -9
0 -20 5 -23 10 -8 13 5 13 25 0z m-1920 -20 c0 -5 -5 -10 -11 -10 -5 0 -7 5
-4 10 3 6 8 10 11 10 2 0 4 -4 4 -10z m5170 -5 c16 -19 17 -104 1 -132 -15
-28 -35 -29 -61 -3 -31 31 -24 84 18 133 18 21 26 21 42 2z m-620 -62 c19 -91
9 -165 -26 -194 -18 -15 -45 7 -69 57 -16 34 -16 36 14 98 17 34 31 69 31 78
0 8 3 18 7 21 18 19 31 1 43 -60z m-4065 -82 c-4 -72 -10 -131 -14 -131 -4 0
-7 21 -7 48 l1 47 -37 -3 c-39 -4 -48 7 -24 28 8 6 12 19 9 27 -4 10 -2 14 4
10 18 -12 53 32 53 67 0 31 8 51 18 42 2 -3 1 -64 -3 -135z m-4227 116 c19
-23 -13 -57 -54 -57 -42 0 -54 22 -29 50 21 23 67 26 83 7z m2342 -46 c0 -29
-21 -57 -33 -44 -11 11 -8 48 5 61 19 19 28 14 28 -17z m-350 -2 c0 -5 -4 -9
-10 -9 -5 0 -10 7 -10 16 0 8 5 12 10 9 6 -3 10 -10 10 -16z m1990 12 c0 -6
-4 -13 -10 -16 -5 -3 -10 1 -10 9 0 9 5 16 10 16 6 0 10 -4 10 -9z m365 -42
c0 -28 -4 -35 -22 -37 -19 -3 -23 1 -23 25 0 31 17 56 35 50 5 -2 10 -19 10
-38z m-1237 13 c9 -6 6 -14 -13 -32 l-25 -23 0 25 c0 36 12 46 38 30z m-3415
-14 c7 -21 -12 -48 -34 -48 -25 0 -35 25 -19 45 15 18 47 20 53 3z m3360 -25
c-8 -21 -22 -5 -16 18 4 15 8 17 13 8 5 -7 6 -18 3 -26z m-1461 -15 c3 -39 6
-43 31 -46 20 -3 27 -8 25 -20 -2 -11 -11 -16 -26 -14 -17 3 -22 -2 -22 -20 0
-28 -17 -48 -41 -48 -24 0 -29 21 -23 97 7 87 9 93 33 93 16 0 20 -8 23 -42z
m1562 -16 c3 -5 -1 -9 -9 -9 -8 0 -15 4 -15 9 0 4 4 8 9 8 6 0 12 -4 15 -8z
m-2665 -25 c16 -20 -9 -50 -39 -45 -32 4 -37 32 -8 46 31 14 34 14 47 -1z
m7012 3 c40 -22 12 -100 -36 -100 -48 0 -59 47 -20 85 27 28 29 29 56 15z
m-8106 -20 c0 -32 -114 -66 -130 -40 -4 6 1 22 10 36 14 22 22 25 68 22 38 -2
52 -7 52 -18z m928 -14 c9 -22 -21 -56 -49 -56 -29 0 -40 21 -24 49 12 24 65
29 73 7z m4405 -19 c2 -10 -3 -17 -12 -17 -10 0 -16 9 -16 21 0 24 23 21 28
-4z m-3678 -15 c0 -10 -5 -23 -12 -30 -9 -9 -9 -17 2 -36 17 -32 7 -56 -24
-56 -17 0 -27 8 -34 28 -10 29 -7 43 22 85 21 31 46 36 46 9z m-892 -31 c-2
-20 -8 -26 -28 -26 -30 0 -38 26 -15 48 22 23 47 10 43 -22z m-1040 2 c-2 -10
-13 -19 -26 -21 -24 -4 -29 7 -10 26 18 18 40 15 36 -5z m900 -21 c7 -47 -41
-68 -82 -37 -19 15 -19 15 4 40 31 33 73 31 78 -3z m3982 19 c3 -1 -2 -7 -11
-14 -8 -7 -18 -20 -22 -30 -4 -10 -12 -15 -18 -11 -8 4 -8 9 -1 13 7 4 8 12 2
21 -8 13 -10 13 -10 1 0 -8 -2 -12 -5 -9 -3 3 -3 12 1 21 5 13 33 17 64 8z
m4891 -234 c-21 -21 -33 5 -26 62 17 150 29 165 33 42 1 -52 -1 -98 -7 -104z
m-9061 158 c0 -47 -58 -83 -88 -53 -9 9 -21 8 -51 -2 -46 -15 -71 -8 -71 19 0
26 34 44 69 36 15 -3 38 -1 52 4 39 16 89 13 89 -4z m761 -82 c-7 -15 -19 -23
-36 -23 -21 0 -25 5 -25 29 0 15 10 41 21 56 l22 27 14 -33 c10 -25 11 -40 4
-56z m-435 30 c4 -16 13 -39 21 -52 14 -21 13 -26 -5 -50 -27 -37 -50 -38 -63
-4 -14 38 7 133 31 133 5 0 12 -12 16 -27z m-596 3 c0 -18 -30 -30 -43 -17 -5
5 -6 14 -3 20 10 16 46 13 46 -3z m1188 -8 c-4 -30 -48 -39 -48 -10 0 10 3 22
7 25 3 4 15 7 25 7 14 0 19 -6 16 -22z m5351 -52 c28 -35 58 -76 65 -91 16
-31 11 -55 -10 -55 -19 0 -100 75 -119 109 -39 71 -38 70 -25 86 21 26 36 17
89 -49z m-6673 40 c3 -8 1 -24 -6 -35 -9 -17 -20 -21 -60 -21 -27 0 -59 -4
-73 -9 -13 -5 -30 -5 -37 -1 -22 14 7 40 44 40 17 0 45 9 61 20 35 23 63 26
71 6z m7344 -6 c0 -11 -4 -20 -9 -20 -14 0 -23 18 -16 30 10 17 25 11 25 -10z
m-5946 -66 c22 -8 20 -31 -4 -44 -11 -6 -45 -13 -77 -16 -31 -3 -65 -9 -74
-15 -10 -5 -33 -9 -52 -9 -19 0 -60 -9 -93 -20 -73 -24 -103 -25 -111 -3 -11
27 30 50 104 58 37 4 74 12 81 17 7 6 43 10 81 9 50 -1 71 2 81 14 13 16 37
19 64 9z m3110 -9 c3 -8 1 -15 -3 -15 -5 0 -11 7 -15 15 -3 8 -1 15 3 15 5 0
11 -7 15 -15z m3016 -30 c0 -8 -7 -15 -15 -15 -16 0 -20 12 -8 23 11 12 23 8
23 -8z m2944 -57 c17 -23 21 -85 8 -104 -23 -35 -102 -45 -140 -18 -49 34 -17
99 63 128 53 19 52 19 69 -6z m-10286 0 c23 -23 13 -47 -24 -57 -44 -12 -64
-5 -64 23 0 29 18 46 50 46 14 0 31 -5 38 -12z m-1263 -34 c28 -30 30 -42 12
-66 -21 -27 -65 -33 -87 -13 -25 23 -25 40 1 76 25 36 43 37 74 3z m1980 17
c11 -19 -39 -41 -96 -41 -38 0 -61 -5 -69 -15 -17 -20 -59 -19 -67 1 -9 25 25
45 63 38 20 -4 42 0 60 10 32 17 100 21 109 7z m765 -12 c0 -5 -17 -17 -37
-25 -21 -8 -55 -23 -76 -35 -33 -18 -43 -19 -68 -9 -24 10 -37 10 -72 -3 -23
-9 -63 -16 -88 -16 -26 1 -60 -6 -75 -14 -16 -8 -61 -17 -101 -21 -39 -3 -84
-11 -99 -17 -16 -5 -39 -7 -53 -4 -22 6 -23 8 -8 22 9 9 37 20 64 25 121 22
152 27 204 27 37 1 61 6 69 16 8 10 31 15 69 15 36 0 65 6 80 16 34 25 191 43
191 23z m-2960 -49 c11 -11 20 -27 20 -35 0 -21 -36 -55 -60 -55 -18 0 -40 26
-40 48 0 13 40 62 51 62 5 0 18 -9 29 -20z m1874 14 c22 -9 20 -31 -5 -44 -40
-22 -71 16 -31 39 21 13 17 12 36 5z m8891 -4 c11 -18 8 -90 -5 -105 -20 -24
-40 1 -40 49 0 51 27 85 45 56z m-2600 -41 c20 -18 43 -46 52 -63 34 -69 92
-106 162 -106 46 0 61 -14 61 -58 0 -63 73 -185 169 -283 26 -26 62 -65 82
-88 32 -37 40 -41 82 -41 55 0 72 -21 61 -75 -8 -44 14 -76 100 -141 35 -27
71 -60 80 -74 8 -14 40 -54 70 -90 39 -45 56 -74 56 -93 0 -25 -3 -27 -22 -22
-43 13 -89 56 -130 122 -44 70 -106 123 -145 123 -13 0 -36 -6 -51 -14 -15 -7
-61 -17 -103 -20 -61 -6 -82 -4 -112 10 -20 10 -37 20 -37 23 1 3 12 20 25 36
21 26 27 28 42 17 42 -30 63 -34 118 -27 60 7 71 18 61 60 -13 50 -108 135
-153 135 -7 0 -13 -10 -13 -23 0 -32 -23 -60 -45 -56 -29 6 -29 26 -1 54 14
14 26 33 26 41 0 21 -28 73 -57 108 -14 17 -36 54 -49 84 -17 39 -46 75 -104
129 -44 42 -94 99 -110 128 -34 60 -70 98 -122 131 -38 25 -73 77 -63 94 11
18 34 11 70 -21z m465 16 c10 -12 10 -18 0 -30 -16 -19 -39 -19 -46 0 -6 15
11 45 26 45 4 0 13 -7 20 -15z m-7075 -9 c23 -17 14 -43 -21 -56 -41 -16 -57
7 -34 51 13 22 29 24 55 5z m6840 -16 c3 -5 -1 -10 -9 -10 -9 0 -16 5 -16 10
0 6 4 10 9 10 6 0 13 -4 16 -10z m990 -70 c25 -27 9 -67 -34 -90 -20 -10 -42
-30 -49 -45 -8 -17 -19 -25 -30 -23 -14 3 -18 19 -23 95 -4 50 -10 97 -14 103
-4 6 -1 17 5 25 10 12 21 9 70 -17 33 -17 66 -39 75 -48z m726 -35 c-5 -62 -8
-70 -26 -68 -15 1 -25 -9 -38 -42 -43 -102 -115 -164 -193 -165 -64 0 -114 70
-114 159 0 61 34 155 63 176 50 35 158 -2 220 -76 35 -42 38 -43 52 -25 7 10
17 43 21 73 9 78 23 51 15 -32z m-7904 51 c-2 -6 -20 -19 -40 -29 -28 -14 -41
-16 -57 -7 -28 15 -25 29 10 44 35 14 93 9 87 -8z m1533 -5 c0 -23 -42 -36
-69 -21 -14 7 -20 6 -25 -5 -3 -10 -19 -15 -43 -15 -21 0 -50 -7 -65 -14 -15
-8 -42 -14 -60 -13 -18 0 -63 -3 -100 -7 -64 -8 -68 -7 -68 11 0 24 42 45 75
37 12 -3 51 1 85 10 34 9 94 18 133 21 38 2 72 7 75 10 3 3 18 5 34 5 21 0 28
-5 28 -19z m-2350 5 c0 -3 -4 -8 -10 -11 -5 -3 -10 -1 -10 4 0 6 5 11 10 11 6
0 10 -2 10 -4z m644 -19 c17 -13 16 -15 -17 -30 -55 -26 -90 -4 -45 27 27 19
39 20 62 3z m-761 -13 c3 -3 1 -17 -5 -30 -9 -20 -8 -28 10 -47 29 -31 28 -41
-5 -56 -30 -14 -126 -41 -145 -41 -6 0 14 27 45 59 38 40 55 65 51 75 -9 24 3
46 24 46 10 0 21 -3 25 -6z m6275 -11 c5 -17 -26 -29 -40 -15 -6 6 -7 15 -3
22 9 14 37 9 43 -7z m-5687 -17 c0 -5 -19 -15 -43 -23 -24 -7 -57 -18 -74 -23
-17 -6 -39 -10 -50 -10 -10 0 -26 -4 -33 -9 -12 -8 -11 -13 10 -30 l24 -21
-25 -21 c-19 -16 -34 -20 -64 -16 -51 7 -67 23 -34 36 28 11 41 34 27 48 -18
18 13 31 119 51 57 11 106 23 110 26 9 9 33 3 33 -8z m1313 -12 c8 -22 7 -36
-3 -53 -13 -20 -41 3 -41 34 0 36 32 50 44 19z m96 -4 c0 -5 -9 -10 -21 -10
-11 0 -17 5 -14 10 3 6 13 10 21 10 8 0 14 -4 14 -10z m5845 -20 c0 -18 -6
-26 -22 -28 -18 -3 -23 1 -23 21 0 28 9 39 30 35 9 -2 15 -14 15 -28z m-481 4
c20 -20 20 -43 0 -72 -18 -26 -31 -28 -56 -5 -22 20 -23 42 -2 71 18 26 37 28
58 6z m-5624 -14 c0 -26 -38 -47 -46 -25 -9 23 3 45 26 45 13 0 20 -7 20 -20z
m3304 -38 c7 -12 -6 -27 -26 -30 -18 -3 -25 18 -11 31 9 9 31 9 37 -1z m1874
-13 c4 -21 -32 -64 -46 -55 -16 10 -15 63 1 69 21 9 42 3 45 -14z m-438 -43
c0 -29 -28 -42 -48 -22 -20 20 -8 46 23 46 20 0 25 -5 25 -24z m-1951 -28 c0
-10 -2 -10 -6 0 -2 6 -9 10 -14 6 -5 -3 -9 4 -9 16 0 19 2 20 15 6 8 -8 15
-21 14 -28z m1740 29 c8 -10 7 -21 -2 -41 -24 -53 -84 -15 -63 40 7 18 50 18
65 1z m-1709 -11 c0 -3 -4 -8 -10 -11 -5 -3 -10 -1 -10 4 0 6 5 11 10 11 6 0
10 -2 10 -4z m-3717 -26 c8 -30 -3 -60 -22 -60 -21 0 -41 19 -41 40 0 38 54
55 63 20z m5017 -9 c14 -27 -4 -71 -29 -71 -23 0 -35 31 -27 66 8 29 41 32 56
5z m-3250 -36 c0 -8 -4 -15 -9 -15 -5 0 -11 7 -15 15 -3 9 0 15 9 15 8 0 15
-7 15 -15z m51 -64 c24 -25 29 -38 29 -78 0 -50 -31 -133 -49 -133 -6 0 -13
-11 -17 -25 -6 -24 -32 -30 -27 -7 2 6 -3 9 -11 6 -20 -8 -44 103 -36 166 7
51 40 100 68 100 7 0 27 -13 43 -29z m-3153 -23 c-4 -30 -48 -39 -48 -10 0 24
8 32 32 32 14 0 19 -6 16 -22z m2018 -107 c-4 -71 8 -91 56 -91 24 0 41 10 72
45 48 52 81 59 96 20 8 -20 16 -25 46 -25 21 0 46 7 56 16 14 14 20 14 33 4
19 -16 104 -7 137 13 14 9 31 12 43 7 24 -9 95 -1 112 12 8 6 25 5 48 -3 75
-27 25 -60 -100 -66 -144 -7 -158 -8 -197 -17 -35 -8 -44 -20 -39 -50 4 -19
-11 -66 -21 -66 -19 0 -37 34 -38 68 0 30 -2 33 -27 30 -20 -2 -33 -13 -44
-35 -26 -51 -40 -64 -68 -61 -19 2 -29 11 -37 36 -13 42 -31 54 -69 46 -41 -9
-53 -21 -61 -60 -3 -19 -10 -37 -15 -40 -9 -5 -13 2 -23 49 -6 23 -11 27 -43
27 -20 0 -44 -7 -54 -16 -13 -12 -22 -13 -38 -5 -28 15 -75 14 -118 -4 -19 -8
-63 -15 -97 -16 -33 0 -94 -4 -134 -8 -80 -8 -109 1 -79 23 16 13 92 31 111
27 5 -1 43 5 84 14 46 9 94 13 123 9 34 -5 56 -2 80 10 17 9 51 16 73 16 67 1
106 46 106 123 0 24 3 47 7 51 14 14 23 -23 19 -83z m6292 46 c6 -49 -40 -79
-53 -36 -4 11 -4 32 -1 45 10 37 50 30 54 -9z m-4898 -12 c0 -16 -6 -25 -15
-25 -15 0 -21 31 -8 43 13 14 23 6 23 -18z m-495 -24 c3 -5 21 -7 40 -4 23 4
35 2 35 -6 0 -11 -20 -15 -48 -12 -8 1 -19 -2 -25 -7 -7 -6 -31 -10 -54 -10
-24 -1 -47 -3 -53 -7 -14 -9 -54 15 -43 26 5 5 36 13 69 18 32 5 62 9 66 10 4
0 9 -3 13 -8z m6411 -22 c11 -23 14 -43 9 -73 -4 -22 -7 -85 -6 -138 1 -68 -3
-108 -14 -134 -8 -20 -15 -57 -15 -82 0 -58 -13 -46 -17 16 -3 43 -12 305 -13
362 0 30 19 80 31 80 5 0 16 -14 25 -31z m-2276 10 c0 -22 -22 -49 -40 -49
-11 0 -27 -11 -36 -25 -20 -30 -39 -23 -23 8 24 45 55 76 77 76 12 1 22 -4 22
-10z m-3780 -46 c0 -8 -7 -10 -17 -6 -25 9 -34 25 -21 40 9 11 13 10 24 -4 7
-10 14 -23 14 -30z m3906 12 c7 -18 -37 -58 -50 -45 -5 5 -6 20 -2 34 7 29 43
36 52 11z m-6125 -5 c21 -12 26 -45 8 -55 -15 -10 -101 25 -96 38 2 6 14 14
28 18 35 10 38 10 60 -1z m7492 -12 c50 -26 62 -76 25 -102 -29 -20 -47 -20
-70 1 -22 20 -23 70 -1 95 19 21 18 21 46 6z m1429 -6 c3 -9 1 -46 -3 -82 -5
-36 -8 -123 -7 -195 2 -99 -1 -135 -12 -153 -31 -48 -53 6 -44 108 6 55 3 73
-15 108 -21 42 -21 42 -2 111 20 77 44 121 65 121 8 0 16 -8 18 -18z m-7256
-73 c3 -6 1 -16 -5 -22 -9 -9 -14 -8 -21 3 -9 15 -4 30 10 30 5 0 12 -5 16
-11z m-1489 -30 c27 -11 36 -10 67 6 29 16 37 17 50 6 40 -33 -7 -91 -58 -72
-34 13 -54 6 -93 -35 -34 -37 -55 -37 -84 -1 -13 16 -20 17 -37 8 -29 -15 -35
-14 -50 10 -11 18 -11 24 4 40 10 11 30 19 48 19 17 0 45 9 61 20 31 21 37 21
92 -1z m2160 -21 c-3 -8 -6 -5 -6 6 -1 11 2 17 5 13 3 -3 4 -12 1 -19z m3779
-23 c10 -41 -35 -77 -50 -40 -7 20 14 65 30 65 8 0 16 -11 20 -25z m-6258 -15
c44 0 60 -19 17 -21 -14 -1 -28 -2 -32 -3 -64 -16 -125 -26 -149 -24 -16 1
-39 -4 -52 -11 -14 -8 -56 -12 -110 -11 -119 3 -180 -8 -225 -38 l-38 -25 -27
20 c-15 11 -27 26 -27 34 0 22 50 34 94 23 29 -8 43 -7 57 3 10 7 39 12 64 12
25 -1 59 5 77 14 21 11 57 17 105 17 40 0 80 5 88 10 8 6 38 8 65 5 28 -3 69
-5 93 -5z m4132 -7 c-1 -35 -60 -82 -60 -48 0 9 6 12 16 8 14 -5 15 -3 4 17
-10 18 -9 24 1 31 22 14 39 10 39 -8z m-1760 -13 c0 -5 -5 -10 -11 -10 -5 0
-7 5 -4 10 3 6 8 10 11 10 2 0 4 -4 4 -10z m5274 -6 c25 -24 20 -53 -10 -60
-38 -10 -61 17 -46 51 13 29 33 32 56 9z m-8568 -18 c16 -26 43 -125 44 -163
0 -36 -37 -29 -81 16 -44 44 -50 80 -23 137 19 40 38 43 60 10z m3557 -68 c14
4 26 -18 20 -35 -6 -16 -45 -17 -61 -1 -9 9 -12 9 -12 -1 0 -7 -4 -9 -10 -6
-13 8 -13 41 1 66 10 20 11 20 31 -3 11 -13 25 -22 31 -20z m-414 14 c7 -13 6
-23 -1 -30 -27 -27 -56 -6 -38 28 13 25 26 26 39 2z m151 -6 c0 -3 -4 -8 -10
-11 -5 -3 -10 -1 -10 4 0 6 5 11 10 11 6 0 10 -2 10 -4z m1743 -20 c12 -30
-70 -75 -87 -47 -9 13 45 56 75 60 4 1 9 -5 12 -13z m493 -23 c-3 -10 -14 -19
-25 -20 -15 -1 -18 3 -13 20 3 12 10 25 16 29 16 10 29 -7 22 -29z m-2242 -35
c-3 -4 0 -17 6 -29 9 -17 8 -24 -6 -40 -17 -19 -17 -20 4 -26 34 -8 41 -52 12
-75 -29 -24 -57 -23 -64 2 -3 11 -9 29 -12 40 -4 16 0 20 18 21 22 0 22 1 3 9
-11 5 -14 9 -7 9 7 1 10 6 7 11 -3 6 -1 10 6 10 7 0 3 10 -9 23 -29 31 -28 47
3 47 17 0 25 6 25 18 0 14 2 15 9 2 6 -8 8 -18 5 -22z m340 -15 c4 -11 1 -22
-8 -29 -9 -6 -16 -16 -16 -23 0 -6 -4 -11 -10 -11 -5 0 -10 8 -10 18 0 14 -2
15 -9 2 -6 -8 -7 -18 -5 -22 3 -4 -6 -8 -20 -8 -15 0 -26 -6 -26 -14 0 -9 10
-12 30 -10 41 5 38 -14 -5 -32 -46 -19 -51 -18 -51 8 0 26 24 58 43 58 8 0 18
12 24 27 9 24 35 52 50 53 4 0 10 -8 13 -17z m4386 -12 c0 -4 -9 -16 -20 -26
-16 -15 -22 -15 -35 -5 -20 17 -19 37 2 49 18 10 53 -2 53 -18z m-5992 -29 c4
-26 -16 -65 -29 -57 -10 7 -12 45 -3 70 9 21 28 14 32 -13z m512 -11 c0 -23
-25 -46 -34 -32 -7 11 14 51 26 51 5 0 8 -8 8 -19z m-330 -6 c0 -8 -4 -15 -10
-15 -5 0 -10 7 -10 15 0 8 5 15 10 15 6 0 10 -7 10 -15z m1433 -23 c-3 -12 -9
-22 -14 -22 -12 0 -11 7 3 30 15 24 19 21 11 -8z m-147 -19 c-3 -34 -7 -38
-34 -41 -23 -2 -34 -11 -46 -37 -9 -18 -16 -41 -15 -52 0 -17 1 -17 8 1 5 12
10 15 14 9 4 -6 0 -16 -8 -23 -8 -7 -15 -9 -15 -5 0 4 -8 1 -17 -6 -15 -12
-16 -12 -10 3 7 20 -9 35 -17 16 -3 -7 -3 1 1 17 8 40 13 47 28 41 9 -3 24 12
40 40 14 24 32 44 40 44 8 0 15 7 15 15 0 8 4 15 10 15 5 0 8 -17 6 -37z
m-691 -35 c64 11 85 7 85 -14 0 -15 -42 -29 -65 -21 -8 4 -17 2 -21 -4 -3 -5
-14 -7 -24 -4 -34 11 -60 -12 -60 -51 0 -28 -3 -35 -17 -32 -13 2 -18 13 -18
38 0 32 -3 35 -33 38 -21 2 -41 -3 -52 -13 -16 -14 -22 -15 -42 -4 -13 7 -27
12 -33 10 -10 -4 -30 -6 -107 -9 -30 -2 -38 -7 -46 -32 -13 -36 -42 -31 -42 7
0 24 -2 24 -42 18 -52 -9 -216 -11 -224 -2 -15 14 11 27 54 27 63 0 202 19
229 32 11 6 26 8 31 4 6 -3 40 -7 76 -7 37 -1 69 -5 72 -10 3 -5 15 -3 26 5
14 10 36 13 67 10 35 -4 53 -1 75 15 27 18 31 18 41 4 10 -13 21 -14 70 -5z
m-771 -80 c-4 -6 -12 -41 -18 -77 -6 -36 -15 -66 -21 -66 -5 0 -11 25 -13 55
-2 30 -9 58 -15 62 -22 14 -61 8 -84 -14 -22 -21 -24 -21 -36 -4 -11 15 -23
17 -73 13 -32 -3 -130 -8 -217 -11 -88 -3 -167 -8 -178 -11 -30 -10 -37 -34
-45 -144 -4 -56 -10 -103 -13 -105 -3 -2 -26 -1 -51 3 -40 5 -45 9 -48 34 -3
23 1 28 27 33 21 5 33 14 36 28 9 47 11 137 3 143 -6 3 -25 -3 -44 -13 -26
-14 -38 -16 -52 -8 -21 14 -28 50 -12 69 10 12 18 12 52 -2 37 -15 42 -15 70
1 24 15 34 16 57 6 22 -9 47 -9 107 0 80 12 335 31 409 30 75 0 101 9 114 38
l13 27 19 -38 c11 -21 17 -43 13 -49z m1566 72 c0 -5 -2 -10 -4 -10 -3 0 -8 5
-11 10 -3 6 -1 10 4 10 6 0 11 -4 11 -10z m-2939 -20 c12 -7 19 -21 19 -40 0
-27 -3 -30 -31 -30 -43 0 -69 17 -69 45 0 33 41 46 81 25z m2876 -36 c2 -5 -8
-10 -22 -10 -21 -2 -24 1 -14 12 13 15 31 14 36 -2z m-85 -36 c-7 -7 -12 -8
-12 -2 0 14 12 26 19 19 2 -3 -1 -11 -7 -17z m5872 0 c10 -39 7 -65 -10 -79
-28 -23 -44 24 -24 75 12 32 26 33 34 4z m-8275 -19 c8 -14 11 -33 8 -43 -6
-15 -9 -15 -34 -2 -23 11 -47 12 -118 5 -50 -4 -127 -10 -172 -13 -74 -4 -83
-2 -83 13 0 9 6 26 14 36 14 19 14 19 49 0 31 -17 39 -17 61 -6 21 12 30 12
58 -2 22 -10 38 -13 49 -6 10 5 31 9 47 9 16 0 40 9 53 20 30 25 49 22 68 -11z
m1897 18 c4 -4 0 -7 -9 -7 -8 0 -18 -8 -21 -18 -7 -22 -89 -30 -112 -11 -21
17 -7 29 34 30 20 0 46 4 57 8 22 9 41 8 51 -2z m7001 -19 c-3 -8 -6 -5 -6 6
-1 11 2 17 5 13 3 -3 4 -12 1 -19z m-1403 -50 c54 -36 66 -55 42 -64 -20 -8
-116 31 -133 54 -7 9 -13 29 -13 44 0 28 1 28 28 14 15 -8 49 -30 76 -48z
m-5100 36 c3 -8 2 -12 -4 -9 -6 3 -10 10 -10 16 0 14 7 11 14 -7z m-3267 -25
c75 -30 79 -31 106 -15 16 9 43 16 60 16 18 0 68 7 112 15 43 9 85 13 93 10
24 -9 9 -49 -25 -65 -17 -8 -41 -27 -53 -42 -27 -35 -40 -35 -75 -2 -15 14
-33 23 -41 20 -7 -3 -33 2 -58 10 -40 14 -47 14 -75 0 -35 -18 -113 -21 -143
-5 -15 8 -18 17 -13 37 6 24 22 52 30 52 2 0 39 -14 82 -31z m3183 -32 c0 -14
-6 -24 -15 -24 -18 0 -19 13 -2 32 16 19 17 19 17 -8z m80 -1 c0 -3 -4 -8 -10
-11 -5 -3 -10 -1 -10 4 0 6 5 11 10 11 6 0 10 -2 10 -4z m-717 -101 c-3 -83
-7 -95 -25 -77 -8 8 -9 18 -1 36 8 15 8 27 2 33 -12 12 -15 65 -5 82 5 7 13
10 19 8 8 -2 11 -30 10 -82z m-2963 65 c0 -5 -2 -10 -4 -10 -3 0 -8 5 -11 10
-3 6 -1 10 4 10 6 0 11 -4 11 -10z m3370 -15 c15 -18 5 -62 -20 -93 -16 -19
-22 -21 -33 -11 -11 10 -10 22 7 66 23 57 27 61 46 38z m220 5 c0 -5 -2 -10
-4 -10 -3 0 -8 5 -11 10 -3 6 -1 10 4 10 6 0 11 -4 11 -10z m85 -10 c3 -5 2
-10 -4 -10 -5 0 -13 5 -16 10 -3 6 -2 10 4 10 5 0 13 -4 16 -10z m-1107 -52
c-3 -35 -28 -52 -28 -20 0 28 10 52 22 52 5 0 8 -14 6 -32z m1102 -3 c0 -5 -5
-3 -10 5 -5 8 -10 20 -10 25 0 6 5 3 10 -5 5 -8 10 -19 10 -25z m-164 -10 c-2
-14 -6 -25 -9 -25 -4 0 -11 0 -16 0 -18 0 -21 33 -4 45 23 17 32 11 29 -20z
m3231 -15 c18 -25 46 -62 63 -84 51 -65 31 -106 -31 -60 -23 16 -36 21 -44 14
-9 -7 -21 -7 -39 0 -34 12 -35 40 -1 40 14 0 25 3 25 6 0 4 -14 31 -31 60 -17
30 -27 59 -24 64 14 22 50 4 82 -40z m1903 30 c0 -12 -28 -25 -36 -17 -9 9 6
27 22 27 8 0 14 -5 14 -10z m-6535 -33 c0 -26 -20 -25 -23 2 -3 16 1 22 10 19
7 -3 13 -12 13 -21z m139 -50 c-3 -15 -10 -24 -15 -21 -11 6 -12 48 -2 58 13
12 24 -11 17 -37z m1174 -8 c-3 -8 -7 -3 -11 10 -4 17 -3 21 5 13 5 -5 8 -16
6 -23z m-33 -6 c-3 -10 -9 -30 -12 -45 -3 -15 -9 -25 -14 -22 -5 3 -9 1 -9 -5
0 -5 5 -13 11 -16 7 -5 5 -15 -6 -32 -15 -23 -15 -25 4 -42 27 -24 27 -56 0
-75 -15 -10 -20 -21 -16 -35 8 -32 -3 -25 -14 9 -6 17 -16 27 -22 23 -7 -4 -8
0 -2 13 4 10 9 40 11 66 1 26 6 53 10 59 4 8 3 9 -4 5 -20 -12 -14 40 9 78 13
22 29 36 41 36 15 0 18 -4 13 -17z m295 -2 c0 -5 -7 -11 -15 -15 -15 -5 -20 5
-8 17 9 10 23 9 23 -2z m-730 -26 c0 -8 -2 -15 -4 -15 -2 0 -6 7 -10 15 -3 8
-1 15 4 15 6 0 10 -7 10 -15z m7250 -20 c25 -41 21 -61 -15 -75 -19 -7 -36 -6
-60 5 -19 7 -35 17 -35 21 0 8 71 80 82 83 3 0 16 -15 28 -34z m-6514 1 c0
-14 -6 -22 -13 -19 -14 6 -17 25 -6 36 13 14 21 7 19 -17z m5981 -53 c2 -6
-29 -21 -68 -33 l-72 -23 -19 22 c-23 30 -23 37 6 66 l23 23 64 -23 c35 -12
65 -27 66 -32z m1178 47 c60 -23 37 -64 -41 -76 -50 -7 -94 14 -94 45 0 34 79
52 135 31z m-9275 -29 c0 -10 8 -26 19 -35 16 -15 36 -16 161 -12 90 3 147 10
157 18 12 9 19 9 35 -1 12 -7 67 -14 134 -16 106 -4 116 -3 136 17 21 21 21
21 35 2 10 -14 27 -19 66 -20 29 0 59 3 68 8 23 10 45 -15 27 -30 -13 -10 -20
-11 -110 -12 -47 0 -48 -1 -48 -30 0 -17 -7 -44 -15 -59 -13 -26 -13 -30 0
-41 22 -18 21 -172 -1 -191 -20 -16 -34 2 -34 48 0 30 -1 31 -25 20 -13 -7
-29 -22 -35 -35 -10 -24 -30 -26 -38 -4 -2 6 8 17 22 23 19 9 26 20 26 41 0
19 10 40 28 57 25 25 27 35 27 97 l0 69 -85 7 c-95 8 -144 3 -178 -18 -16 -11
-27 -12 -41 -4 -24 12 -290 13 -310 1 -8 -6 -15 -35 -19 -80 l-5 -72 28 13
c24 11 29 10 45 -12 32 -42 -4 -115 -51 -103 -18 5 -20 2 -17 -38 3 -42 4 -44
43 -52 22 -4 52 -10 68 -14 47 -9 30 -21 -45 -28 -48 -5 -77 -13 -84 -23 -10
-14 -14 -14 -37 1 -15 9 -42 17 -61 17 -19 0 -47 5 -61 10 -23 9 -25 13 -15
25 7 8 29 15 50 15 21 0 52 3 70 7 l33 6 -6 186 c-6 157 -4 193 10 228 15 42
33 49 33 14z m9770 19 c13 -9 12 -12 -4 -25 -23 -17 -54 -19 -76 -5 -13 9 -12
12 4 25 23 17 54 19 76 5z m-10806 -20 c49 -21 66 -44 47 -63 -6 -6 -11 -20
-11 -32 0 -12 -7 -30 -15 -41 -15 -18 -17 -18 -53 22 -20 23 -47 47 -59 53
-27 14 -29 37 -6 63 21 23 40 23 97 -2z m2487 -25 c57 -1 64 -3 64 -20 0 -18
-8 -20 -74 -23 -69 -3 -73 -4 -68 -24 7 -26 -9 -58 -28 -58 -11 0 -15 12 -15
40 0 46 17 42 -162 42 -64 0 -125 -5 -135 -10 -10 -5 -52 -6 -93 -3 -57 5 -75
10 -75 21 0 11 16 16 65 20 36 3 71 9 78 13 7 5 18 4 26 -2 8 -7 54 -9 127 -7
159 6 196 13 204 40 7 20 7 20 14 -4 7 -23 11 -25 72 -25z m575 -17 c-15 -25
-19 -14 -11 29 7 35 8 36 15 13 3 -14 2 -33 -4 -42z m-2883 38 c23 -18 22 -33
-4 -46 -47 -26 -97 22 -51 49 23 14 33 13 55 -3z m4732 4 c-3 -5 -10 -10 -16
-10 -5 0 -9 5 -9 10 0 6 7 10 16 10 8 0 12 -4 9 -10z m-5233 -25 c0 -5 -5 -11
-11 -13 -6 -2 -11 4 -11 13 0 9 5 15 11 13 6 -2 11 -8 11 -13z m128 0 c16 -19
5 -35 -25 -35 -23 0 -40 24 -29 41 8 14 40 11 54 -6z m8244 9 c49 -19 -20 -50
-72 -33 l-35 12 24 13 c26 14 58 18 83 8z m-8733 -14 c23 -13 26 -58 4 -66
-19 -8 -65 22 -65 41 0 8 8 19 18 24 21 13 20 13 43 1z m3713 -36 c8 -21 8
-21 -7 -27 -8 -3 -14 4 -15 19 -2 27 13 32 22 8z m-37 -78 c-5 -10 -17 -20
-26 -23 -9 -2 -22 -18 -28 -34 -12 -30 -33 -40 -33 -15 0 30 20 67 32 60 10
-5 10 -4 1 6 -10 11 -7 19 20 41 32 27 32 27 38 6 3 -12 2 -30 -4 -41z m287
20 c-3 -9 -10 -16 -15 -16 -6 0 -5 9 1 21 13 24 24 20 14 -5z m1769 17 c-7 -2
-13 -11 -13 -19 0 -8 -5 -14 -10 -14 -7 0 -7 6 0 20 6 11 16 20 23 19 9 0 9
-2 0 -6z m-1829 -19 c3 -8 2 -12 -4 -9 -6 3 -10 10 -10 16 0 14 7 11 14 -7z
m3370 -9 c3 -8 18 -15 32 -15 28 0 64 -25 64 -44 -1 -33 -20 -40 -122 -43 -76
-3 -106 -7 -114 -18 -27 -36 -76 -1 -55 38 6 12 10 33 9 47 -3 24 -2 25 64 25
40 0 72 5 79 13 17 16 36 15 43 -3z m-5834 -19 c0 -27 -28 -43 -36 -21 -6 16
12 45 27 45 5 0 9 -11 9 -24z m1020 -2 c0 -8 -9 -14 -20 -14 -22 0 -26 10 -8
28 13 13 28 7 28 -14z m-872 -11 c-2 -17 -10 -29 -20 -31 -14 -3 -18 3 -18 27
0 25 4 31 21 31 16 0 20 -5 17 -27z m5970 -15 c20 -17 14 -48 -13 -60 -21 -9
-28 -8 -45 7 -51 46 3 96 58 53z m445 6 c9 -3 27 -24 38 -47 12 -23 44 -63 71
-88 l48 -48 96 0 c75 -1 96 2 100 14 10 25 31 17 54 -22 23 -39 21 -70 -6 -98
-12 -12 -27 -14 -66 -9 -49 7 -51 6 -45 -15 7 -28 -12 -28 -99 4 -79 29 -95
43 -118 107 -39 107 -86 134 -258 148 -124 10 -152 20 -130 43 21 20 253 29
315 11z m219 -16 c20 -16 24 -36 14 -65 -9 -27 -41 -30 -68 -6 -22 20 -23 41
-1 65 19 21 33 23 55 6z m-4335 -18 c-2 -11 -9 -26 -15 -32 -9 -9 -11 -6 -7
10 7 40 28 59 22 22z m4532 2 c11 -21 -8 -52 -33 -52 -19 0 -22 40 -4 58 16
16 26 15 37 -6z m-5315 -29 c15 -31 5 -78 -15 -71 -19 6 -23 98 -5 98 3 0 12
-12 20 -27z m401 7 c3 -5 12 -7 20 -3 22 8 18 -13 -7 -38 -13 -12 -17 -18 -9
-14 11 6 13 4 8 -8 -3 -10 -2 -17 4 -17 6 0 7 -5 3 -12 -6 -9 -9 -9 -12 0 -2
7 -10 12 -17 12 -9 0 -13 14 -13 45 0 42 9 57 23 35z m1923 -13 c2 -10 -2 -25
-9 -33 -16 -19 -39 0 -39 33 0 20 4 24 22 21 13 -2 24 -11 26 -21z m-2494 -20
c-3 -9 -10 -17 -15 -17 -11 0 -12 34 -2 44 11 11 24 -9 17 -27z m1001 -28 l-7
-31 -14 27 c-10 20 -11 32 -3 47 10 19 12 20 21 4 5 -9 6 -30 3 -47z m-1337 2
c4 -50 -9 -71 -33 -51 -15 13 -21 80 -8 94 19 19 38 -1 41 -43z m2415 43 c9
-9 -4 -35 -14 -28 -5 3 -6 -2 -3 -10 3 -9 2 -16 -4 -16 -11 0 -22 23 -22 46 0
14 31 20 43 8z m-1173 -55 c0 -5 -4 -9 -10 -9 -5 0 -10 7 -10 16 0 8 5 12 10
9 6 -3 10 -10 10 -16z m-59 -16 c0 -16 1 -16 8 1 7 18 8 18 14 2 9 -23 9 -37
0 -34 -5 2 -30 -20 -58 -47 -47 -48 -49 -49 -53 -26 -4 26 23 55 44 47 7 -3
14 11 18 35 6 39 25 55 27 22z m-691 -15 c10 -61 11 -82 5 -96 -6 -16 -8 -15
-21 2 -14 20 -19 77 -7 89 6 7 23 10 23 5z m412 -15 c20 -17 25 -38 7 -27 -11
6 -9 -6 9 -56 4 -11 -1 -10 -16 4 -12 11 -22 31 -22 46 0 14 -5 31 -12 38 -19
19 12 15 34 -5z m-2671 -39 c13 -14 41 -33 62 -41 20 -8 37 -20 37 -27 0 -6
-26 -24 -57 -38 -52 -24 -60 -26 -80 -12 -12 7 -36 14 -53 14 -42 0 -100 26
-100 44 0 9 16 23 36 31 21 8 42 22 48 29 10 13 29 19 72 25 6 0 21 -11 35
-25z m2986 -5 c1 -15 0 -17 -3 -6 -3 9 -10 15 -15 12 -5 -4 -9 1 -9 10 0 26
25 11 27 -16z m1039 4 c-6 -17 -5 -17 8 0 13 17 14 17 18 0 6 -23 -1 -45 -13
-38 -5 4 -6 -2 -2 -11 4 -12 2 -15 -8 -12 -15 5 -24 41 -15 64 8 20 19 17 12
-3z m4849 -3 c22 -24 42 -25 172 -3 l102 17 95 -24 c95 -24 117 -38 91 -60
-37 -31 -299 -38 -370 -10 -38 15 -97 15 -126 0 -15 -8 -77 -11 -193 -10 -94
2 -259 3 -366 2 -125 0 -218 5 -260 13 -44 9 -79 11 -110 5 -68 -14 -154 -12
-174 3 -25 19 -12 55 22 64 15 3 50 6 77 6 28 0 251 -2 497 -5 339 -3 455 -1
475 8 39 17 48 17 68 -6z m-5855 -10 c-6 -11 -13 -20 -16 -20 -2 0 0 9 6 20 6
11 13 20 16 20 2 0 0 -9 -6 -20z m-380 -20 c0 -5 -2 -10 -4 -10 -3 0 -8 5 -11
10 -3 6 -1 10 4 10 6 0 11 -4 11 -10z m7195 -4 c23 -17 14 -42 -20 -58 -49
-22 -98 25 -63 60 16 16 60 15 83 -2z m-7692 -37 c25 -2 114 -6 262 -13 55 -2
108 -4 118 -5 12 -1 17 -7 15 -18 -3 -16 -18 -18 -138 -19 -74 -1 -144 -2
-155 -2 -11 0 -51 1 -89 1 l-68 2 -30 -59 c-33 -66 -41 -93 -28 -101 5 -3 51
-8 104 -10 88 -5 95 -4 101 15 7 23 35 27 35 6 0 -25 51 -43 88 -32 22 6 36 6
44 -2 24 -24 -4 -31 -115 -26 -62 3 -118 5 -124 4 -7 0 -23 0 -35 0 -13 0 -63
0 -111 -1 -80 0 -88 2 -85 18 2 9 17 21 35 27 28 7 34 16 48 62 9 30 17 71 19
93 4 49 12 61 41 61 16 0 26 8 31 23 l8 22 4 -22 c2 -15 11 -23 25 -24z m-713
9 c11 -12 20 -25 20 -28 0 -16 -50 -32 -77 -25 -30 8 -68 10 -123 6 -19 -2
-68 -1 -108 2 -70 5 -104 18 -88 34 11 12 174 23 242 16 37 -3 69 -1 80 5 26
16 31 15 54 -10z m152 1 c12 -6 74 -12 141 -13 129 -1 157 -13 83 -35 -43 -12
-130 -14 -258 -4 -52 4 -68 9 -68 21 0 35 60 53 102 31z m349 -9 c27 -15 24
-40 -5 -40 -28 0 -40 14 -32 35 6 18 11 18 37 5z m-1926 -120 c3 -5 28 -10 54
-10 52 0 78 -18 67 -46 -5 -12 -12 -14 -29 -9 -28 10 -86 10 -114 0 -18 -6
-23 -3 -29 19 -10 39 32 77 51 46z m1334 -17 c0 -5 -4 -17 -8 -28 -5 -11 -5
-27 0 -36 11 -22 -5 -35 -55 -42 -43 -7 -100 16 -93 36 2 7 18 12 36 13 22 1
42 11 63 33 28 28 59 41 57 24z m1546 -11 c-3 -3 -11 0 -18 7 -9 10 -8 11 6 5
10 -3 15 -9 12 -12z m6005 -19 c72 -64 39 -103 -85 -102 -87 0 -140 17 -140
43 0 22 125 96 162 96 13 0 41 -16 63 -37z m-1709 17 c15 -8 19 -21 19 -59 0
-67 13 -75 103 -68 39 3 91 2 115 -4 60 -13 294 -19 309 -7 8 7 10 25 7 52 -6
38 -3 45 21 64 36 29 94 29 129 1 24 -19 26 -26 21 -63 -10 -66 4 -73 170 -79
104 -3 156 0 204 11 74 17 67 27 -31 43 -99 16 -114 41 -45 76 94 49 139 48
199 -6 l31 -27 -31 -35 -31 -36 37 -18 c26 -13 70 -20 151 -24 73 -4 116 -10
118 -18 5 -15 -52 -33 -102 -32 -22 1 -96 -1 -165 -3 -92 -4 -134 -2 -159 8
-43 18 -78 18 -131 -1 -54 -19 -88 -19 -157 1 -40 12 -75 14 -122 10 -82 -8
-83 -8 -157 0 -48 5 -70 2 -98 -11 -34 -17 -39 -17 -74 -1 -21 9 -76 19 -127
22 -49 3 -127 7 -172 11 -46 3 -95 1 -112 -5 -21 -7 -40 -7 -68 3 -35 11 -259
20 -495 18 -83 0 -91 -2 -154 -39 -72 -42 -73 -43 -100 -118 -20 -57 -56 -96
-90 -96 -28 0 -28 1 -10 44 18 42 209 252 239 263 12 4 96 8 187 9 91 1 179 3
195 4 44 4 142 -7 162 -19 13 -6 28 -5 51 4 29 13 32 18 32 57 0 47 7 62 30
71 25 9 80 8 101 -3z m-6296 -20 c10 -11 26 -20 37 -20 10 0 18 -5 18 -11 0
-6 -8 -9 -19 -6 -10 2 -29 -4 -42 -14 -22 -16 -25 -16 -41 -2 -21 19 -23 44
-6 61 17 17 32 15 53 -8z m6721 -15 c52 -34 6 -72 -71 -59 -48 8 -65 20 -65
46 0 38 85 47 136 13z m-6991 6 c3 -5 1 -13 -5 -16 -15 -9 -43 3 -35 15 8 13
32 13 40 1z m123 -8 c5 -17 -26 -29 -40 -15 -6 6 -7 15 -3 22 9 14 37 9 43 -7z
m670 -15 c30 -30 -11 -59 -45 -32 -17 13 -17 15 1 29 24 18 29 18 44 3z m137
-24 c0 -32 -21 -39 -38 -12 -8 12 -7 21 3 32 19 24 35 14 35 -20z m85 16 c13
-7 27 -6 45 2 21 9 29 9 42 -4 28 -28 7 -39 -60 -32 -74 8 -82 11 -66 30 14
17 15 17 39 4z m280 -29 c0 -24 -26 -34 -51 -21 -23 13 -24 24 -3 44 19 20 54
5 54 -23z m765 9 c-5 -8 -11 -8 -17 -2 -6 6 -7 16 -3 22 5 8 11 8 17 2 6 -6 7
-16 3 -22z m6536 20 c23 -13 25 -52 4 -70 -23 -19 -18 -34 16 -54 49 -29 31
-40 -76 -49 -105 -9 -145 -4 -145 16 0 15 43 41 83 51 37 9 34 18 -13 39 -43
20 -53 49 -22 66 22 14 128 14 153 1z m-9196 -26 c31 -12 43 -13 66 -3 24 9
33 9 52 -3 12 -9 37 -19 55 -22 86 -19 21 -55 -71 -39 -47 8 -69 7 -93 -2 -28
-11 -35 -11 -60 6 -16 10 -41 19 -56 19 -37 0 -58 10 -58 26 0 10 14 14 49 14
28 0 53 5 56 10 8 13 16 13 60 -6z m1800 6 c8 -13 -20 -24 -41 -16 -20 8 -9
26 16 26 10 0 22 -5 25 -10z m978 -44 c6 -15 -1 -26 -15 -26 -4 0 -8 9 -8 20
0 23 15 27 23 6z m-175 -45 c-15 -6 -20 7 -12 31 l8 23 6 -25 c3 -14 2 -27 -2
-29z m1252 40 c0 -6 -11 -23 -24 -38 l-25 -28 1 25 c1 14 6 31 11 38 11 14 37
16 37 3z m-3254 -16 c16 -13 17 -16 4 -25 -21 -13 -50 -12 -80 5 l-25 14 25
10 c35 14 53 13 76 -4z m264 -2 c14 -6 33 -14 43 -17 23 -7 22 -26 -2 -26 -10
0 -31 -10 -46 -22 -24 -19 -29 -20 -39 -6 -20 27 -53 38 -98 32 -32 -5 -47 -2
-56 9 -10 11 -9 17 4 28 12 10 22 10 45 2 32 -12 96 -7 105 9 3 5 9 8 12 6 4
-2 18 -9 32 -15z m-385 -3 c3 -6 -5 -10 -19 -10 -14 0 -28 5 -31 10 -3 6 5 10
19 10 14 0 28 -4 31 -10z m758 -29 c4 -1 7 -8 7 -16 0 -20 -47 -30 -73 -16
-13 7 -50 10 -92 7 -66 -4 -105 5 -105 23 0 6 221 8 263 2z m300 -11 c16 -19
16 -22 2 -36 -8 -9 -15 -30 -15 -47 0 -53 -17 -67 -25 -21 -11 67 -9 66 -80
62 -68 -3 -92 8 -82 36 5 14 18 15 75 10 47 -5 71 -3 76 5 11 17 30 13 49 -9z
m3010 7 c13 12 19 -28 7 -42 -17 -21 -29 -19 -39 8 -11 29 -3 51 14 37 6 -5
15 -7 18 -3z m-2641 -15 c5 -16 20 -20 104 -25 140 -10 194 -9 194 3 0 22 30
22 48 0 16 -20 27 -22 120 -22 60 0 105 -5 109 -11 9 -15 -28 -39 -52 -33 -11
3 -55 8 -97 12 l-77 7 -15 -37 c-8 -20 -20 -36 -25 -36 -6 0 -11 -6 -11 -13 0
-7 -16 -29 -35 -47 -26 -25 -34 -41 -31 -56 4 -13 0 -27 -9 -34 -13 -11 -15
-8 -15 14 0 14 4 34 9 44 34 69 71 155 68 158 -10 10 -151 12 -173 2 -18 -9
-27 -9 -36 0 -7 7 -29 12 -50 12 -35 0 -39 -3 -54 -40 -9 -22 -22 -40 -30 -40
-21 0 -19 103 2 135 19 29 50 33 56 7z m3771 -14 c36 -34 47 -61 47 -117 0
-42 -5 -56 -31 -86 -37 -42 -71 -45 -119 -12 -44 30 -68 103 -46 144 22 43 82
92 113 93 7 0 23 -10 36 -22z m-3963 -8 c0 -22 -2 -23 -75 -20 -45 2 -64 11
-65 33 0 4 32 7 70 7 63 0 70 -2 70 -20z m897 -6 c-2 -32 -12 -29 168 -38 243
-11 320 -18 333 -28 29 -24 9 -30 -85 -23 -54 3 -145 8 -203 10 -136 5 -233
15 -242 23 -8 8 14 82 24 82 4 0 6 -12 5 -26z m7128 16 c14 -5 23 -14 20 -20
-8 -13 -45 -13 -65 0 -13 9 -13 11 0 20 18 12 14 12 45 0z m-211 -29 c3 -5
-13 -19 -36 -31 -40 -21 -43 -21 -55 -4 -25 34 -16 44 36 44 28 0 52 -4 55 -9z
m-9517 -23 c28 -26 29 -40 3 -63 -17 -15 -24 -16 -43 -6 -13 7 -29 21 -36 33
-10 17 -10 23 5 39 22 25 42 24 71 -3z m201 -56 c-4 -22 -38 -22 -52 1 -8 13
-8 20 3 27 20 12 53 -7 49 -28z m385 -16 c22 -17 22 -25 -5 -53 -27 -28 -48
-29 -82 -2 -33 26 -33 35 2 53 34 19 62 19 85 2z m261 -17 c6 -17 2 -38 -15
-77 -19 -44 -27 -52 -44 -48 -11 3 -26 6 -32 6 -24 0 -14 38 10 42 18 3 22 8
19 37 -3 35 22 75 42 68 6 -2 15 -15 20 -28z m1766 6 c0 -8 -5 -17 -10 -20 -6
-4 -8 -11 -5 -16 4 -5 1 -9 -6 -9 -9 0 -9 -3 0 -14 12 -14 5 -46 -10 -46 -13
0 -15 102 -3 122 7 11 34 -3 34 -17z m2710 5 c0 -24 -26 -38 -42 -22 -16 16
-2 42 22 42 13 0 20 -7 20 -20z m-4610 0 c25 -13 15 -40 -14 -40 -27 0 -46 18
-39 36 6 17 27 18 53 4z m803 -72 c0 -29 -4 -79 -8 -110 -7 -56 -8 -57 -36
-51 -26 5 -30 2 -35 -26 -6 -30 -14 -38 -27 -25 -7 8 30 104 49 125 8 8 14 33
14 54 0 50 21 108 34 95 5 -5 9 -33 9 -62z m1197 53 c7 -13 7 -22 0 -26 -5 -3
-10 -1 -10 4 0 6 -8 11 -18 11 -10 0 -27 7 -38 15 -18 13 -17 14 18 15 27 0
40 -5 48 -19z m6744 4 c3 -8 24 -40 47 -70 41 -55 41 -56 23 -76 -60 -66 -159
-65 -231 3 -13 12 -19 26 -15 34 12 20 143 124 157 124 7 0 15 -7 19 -15z
m-4924 -10 c0 -8 -4 -15 -10 -15 -5 0 -10 7 -10 15 0 8 5 15 10 15 6 0 10 -7
10 -15z m2379 1 c36 -9 64 -11 85 -5 66 19 196 3 196 -25 0 -32 -133 -50 -196
-26 -16 6 -62 8 -117 4 l-90 -7 -65 -59 c-36 -32 -73 -63 -83 -69 -17 -9 -18
-7 -9 16 20 52 40 82 80 123 61 61 108 72 199 48z m-3036 -4 c4 9 6 9 6 1 2
-20 -16 -24 -30 -5 -13 15 -12 16 3 4 13 -10 17 -10 21 0z m3530 -12 c43 -19
47 -19 90 -3 43 16 49 16 119 -2 60 -15 82 -16 124 -7 37 8 62 8 90 0 25 -6
70 -8 124 -3 110 10 120 9 139 -10 13 -13 13 -17 1 -30 -20 -19 -62 -20 -260
-6 -91 6 -187 8 -213 4 -27 -3 -79 0 -117 7 -59 11 -74 11 -115 -3 -41 -14
-51 -15 -74 -2 -47 24 -55 41 -29 59 30 21 66 20 121 -4z m-7393 -26 c0 -8 -4
-12 -10 -9 -5 3 -10 10 -10 16 0 5 5 9 10 9 6 0 10 -7 10 -16z m4510 6 c0 -5
-5 -10 -11 -10 -5 0 -7 5 -4 10 3 6 8 10 11 10 2 0 4 -4 4 -10z m-2608 -27
c25 -23 23 -43 -6 -43 -26 0 -36 14 -28 43 5 21 11 21 34 0z m6456 -5 c5 -26
-66 -45 -103 -27 -60 29 -38 48 50 46 38 -2 51 -6 53 -19z m493 5 c36 -21 37
-37 4 -59 -31 -21 -83 -21 -124 0 -40 21 -40 43 2 61 43 19 83 18 118 -2z
m-3537 -8 c-4 -8 -10 -12 -15 -9 -14 8 -10 24 6 24 9 0 12 -6 9 -15z m-3474
-14 c7 -13 7 -22 0 -26 -15 -9 -30 4 -30 26 0 25 16 25 30 0z m4280 -5 c0 -19
-109 -156 -175 -221 -53 -52 -100 -111 -113 -142 -13 -32 -158 -163 -190 -172
-40 -12 -72 -3 -72 19 0 19 19 30 54 30 35 0 63 26 102 96 20 36 44 68 53 72
29 11 111 86 133 122 29 47 59 84 125 153 55 56 83 71 83 43z m3049 -10 c25
-30 -57 -49 -94 -23 -10 8 -15 19 -11 25 10 17 91 15 105 -2z m-8924 -36 c20
-39 19 -54 -3 -32 -22 22 -33 48 -25 56 10 9 12 8 28 -24z m2701 -7 c-7 -17
-8 -17 -17 0 -12 21 -2 44 13 29 6 -6 8 -19 4 -29z m2375 10 c12 -31 -2 -51
-20 -29 -11 13 -7 56 5 56 2 0 9 -12 15 -27z m-786 -24 c8 -26 -16 -54 -39
-46 -19 7 -21 38 -4 55 18 18 36 14 43 -9z m-2495 -8 c0 -23 -26 -88 -39 -95
-13 -8 -23 23 -15 48 9 29 35 66 45 66 5 0 9 -8 9 -19z m-1946 -84 c40 -32 31
-62 -16 -52 -37 8 -88 35 -88 47 0 4 9 17 20 28 22 22 32 20 84 -23z m-873 23
c26 -15 24 -29 -7 -40 -29 -11 -64 2 -64 25 0 23 39 32 71 15z m6114 -30 c0
-35 -21 -53 -31 -26 -9 23 5 68 19 63 7 -2 12 -19 12 -37z m1255 23 c0 -9 -31
-49 -70 -88 -38 -40 -78 -92 -89 -117 -20 -47 -69 -95 -104 -102 -12 -3 -45
-10 -74 -16 -59 -13 -88 -7 -103 21 -9 15 -6 24 15 45 27 27 57 29 108 9 17
-7 80 50 203 186 28 31 89 76 107 78 4 1 7 -7 7 -16z m-6785 -3 c13 -6 15 -9
5 -9 -8 0 -22 4 -30 9 -18 12 -2 12 25 0z m3065 -1 c0 -11 -37 -12 -43 -1 -3
4 6 8 19 8 13 1 24 -2 24 -7z m-2569 -15 c13 -11 54 -20 133 -28 89 -9 119
-16 136 -31 l22 -20 -22 -17 c-27 -22 -53 -23 -85 -2 -17 11 -42 15 -82 13
-101 -5 -169 33 -143 81 13 24 18 25 41 4z m2616 10 c-3 -3 -12 -4 -19 -1 -8
3 -5 6 6 6 11 1 17 -2 13 -5z m-1422 -52 c0 -31 -19 -28 -23 4 -3 18 0 25 10
22 7 -3 13 -14 13 -26z m1660 8 c17 -19 17 -20 0 -20 -10 0 -15 3 -12 7 4 3 2
12 -4 20 -18 21 -4 15 16 -7z m-1165 -47 c0 -35 -4 -53 -9 -45 -7 11 -11 11
-24 -2 -15 -16 -42 -84 -35 -91 1 -2 57 -8 123 -14 66 -6 158 -17 205 -23 47
-7 92 -12 100 -10 8 1 30 0 48 -3 24 -5 32 -11 32 -27 0 -16 -5 -19 -24 -14
-38 9 -159 24 -348 42 -144 14 -180 15 -193 4 -11 -9 -19 -10 -28 -2 -18 16
-205 43 -302 45 -44 1 -85 6 -92 10 -6 4 -40 10 -75 13 -34 4 -69 11 -76 17
-7 5 -38 7 -71 4 -39 -3 -68 0 -84 8 -15 8 -43 11 -72 8 -43 -5 -46 -7 -40
-30 9 -36 -3 -63 -28 -63 -35 0 -45 13 -49 59 -3 40 -6 46 -33 53 -16 5 -57
11 -90 13 -168 12 -229 32 -188 63 10 7 24 9 33 5 8 -4 42 -7 75 -8 38 0 73
-7 94 -19 25 -13 48 -17 84 -13 35 3 68 -2 115 -19 52 -18 70 -20 89 -11 19 8
35 7 72 -7 26 -9 70 -17 97 -17 109 1 193 -5 205 -15 14 -11 166 -31 301 -41
l66 -5 31 42 c17 24 31 46 31 50 0 17 42 100 50 100 6 0 10 -26 10 -57z
m-3220 22 c10 -12 9 -16 -5 -21 -19 -8 -46 5 -53 24 -5 17 43 15 58 -3z m1127
-17 c31 -25 -15 -36 -71 -18 -17 5 -44 12 -59 15 -16 3 -25 10 -21 16 7 13
133 1 151 -13z m235 -25 c24 -21 23 -39 -2 -46 -28 -7 -61 40 -39 54 19 12 20
12 41 -8z m3015 -8 c8 -9 13 -19 9 -22 -7 -7 -36 16 -36 28 0 13 10 11 27 -6z
m143 -6 c0 -5 8 -4 18 2 19 12 75 6 102 -11 18 -11 12 -17 -24 -24 -16 -3 -31
-8 -34 -10 -3 -3 -10 -1 -17 4 -6 5 -22 12 -36 14 -13 3 -26 5 -29 6 -3 1 -15
1 -27 0 -12 -1 -32 4 -45 11 l-23 13 24 6 c32 7 91 0 91 -11z m4015 11 c3 -5
-1 -10 -9 -10 -9 0 -16 5 -16 10 0 6 4 10 9 10 6 0 13 -4 16 -10z m-6882 -32
c20 -10 22 -40 6 -70 -17 -31 19 -58 76 -58 28 0 51 -7 69 -21 36 -28 78 -41
171 -50 116 -11 153 -19 167 -36 16 -20 -8 -36 -42 -27 -14 4 -41 8 -60 9 -19
2 -54 8 -78 14 -38 10 -46 9 -68 -8 -23 -18 -28 -18 -59 -5 -19 8 -48 14 -65
14 -17 0 -38 4 -48 10 -33 19 -145 38 -169 29 -18 -7 -25 -4 -34 13 -10 18 -8
24 11 40 12 10 29 18 38 18 8 0 20 8 27 17 11 15 10 22 -6 44 -10 15 -30 29
-43 33 -34 8 -41 34 -13 46 24 10 91 3 120 -12z m4087 -8 c0 -35 -23 -41 -40
-11 -16 31 -12 41 15 41 21 0 25 -5 25 -30z m-2320 10 c0 -5 -4 -10 -10 -10
-5 0 -10 5 -10 10 0 6 5 10 10 10 6 0 10 -4 10 -10z m727 -32 c-3 -8 -6 -5 -6
6 -1 11 2 17 5 13 3 -3 4 -12 1 -19z m-197 -19 c0 -5 -4 -9 -10 -9 -5 0 -10 7
-10 16 0 8 5 12 10 9 6 -3 10 -10 10 -16z m1267 6 c3 -9 3 -18 1 -21 -9 -9
-38 8 -38 22 0 19 29 18 37 -1z m-3247 -10 c25 -30 -18 -48 -55 -22 -10 8 -15
19 -11 25 10 17 51 15 66 -3z m2070 5 c0 -5 -2 -10 -4 -10 -3 0 -8 5 -11 10
-3 6 -1 10 4 10 6 0 11 -4 11 -10z m-3005 -21 c5 -6 4 -14 -3 -21 -10 -10 -19
-9 -45 1 -17 7 -44 16 -59 18 -16 3 -28 8 -28 12 0 10 123 1 135 -10z m1030
-4 c0 -22 -22 -30 -44 -16 -21 14 -5 43 21 39 15 -2 23 -10 23 -23z m1915 15
c0 -5 -4 -10 -10 -10 -5 0 -10 5 -10 10 0 6 5 10 10 10 6 0 10 -4 10 -10z
m-2705 -55 c0 -5 -17 -11 -37 -13 -30 -3 -38 0 -38 13 0 13 8 16 38 13 20 -2
37 -7 37 -13z m113 -1 c23 -16 30 -44 11 -44 -19 0 -69 34 -69 47 0 18 31 16
58 -3z m1046 -3 c15 -17 15 -19 1 -25 -27 -10 -52 -7 -65 9 -28 34 33 50 64
16z m145 -12 c42 -15 34 -33 -16 -37 -27 -2 -44 2 -53 13 -12 14 -11 18 1 26
18 12 30 11 68 -2z m1213 -8 c-11 -7 -11 -9 2 -14 24 -9 20 -36 -4 -30 -29 8
-26 53 4 53 6 0 5 -4 -2 -9z m2513 -16 c105 -7 125 -12 125 -31 0 -15 -12 -16
-102 -10 -232 15 -268 21 -254 44 6 10 49 9 231 -3z m2445 0 c23 -28 -9 -72
-45 -59 -36 14 -24 74 15 74 10 0 23 -7 30 -15z m-5928 -11 c11 -7 69 -13 125
-14 18 0 34 -4 37 -9 9 -14 57 0 69 20 7 11 15 19 20 19 4 0 5 -5 2 -10 -15
-24 5 -45 42 -47 40 -2 252 -30 433 -58 206 -31 198 -31 221 -21 18 8 53 -20
44 -35 -7 -11 -49 -12 -59 -1 -4 4 -17 7 -29 8 -24 1 -144 13 -192 20 -71 11
-173 24 -213 28 -23 2 -63 7 -90 10 -26 3 -58 6 -72 7 -14 0 -34 6 -45 12 -11
6 -38 12 -60 13 -93 5 -318 32 -339 40 -9 3 -16 12 -16 19 0 10 15 12 56 9 30
-2 60 -7 66 -10z m3160 -183 c-1 -58 -6 -109 -11 -114 -6 -6 -7 -17 -1 -27 9
-17 8 -141 -5 -406 -10 -189 -7 -202 44 -210 81 -13 82 -47 1 -37 l-50 6 -2
-49 c0 -27 0 -72 1 -101 3 -57 -6 -96 -19 -88 -5 3 -9 57 -9 121 0 63 -3 119
-6 124 -3 6 -23 10 -43 10 -20 1 -50 7 -67 14 l-30 13 27 8 c15 4 43 2 63 -5
26 -9 40 -9 47 -2 7 7 14 138 19 364 9 423 16 530 32 502 6 -11 10 -63 9 -123z
m3304 114 c16 -13 17 -16 4 -25 -37 -24 -134 -1 -116 28 10 17 89 15 112 -3z
m-7791 -44 c0 -40 -21 -57 -58 -47 -51 12 -21 90 32 84 22 -3 26 -8 26 -37z
m850 29 c109 -20 322 -50 352 -50 17 0 34 -4 37 -9 8 -12 135 -32 200 -32 33
1 56 -14 56 -36 0 -11 -12 -13 -62 -7 -35 4 -67 9 -73 13 -5 3 -71 14 -145 23
-74 10 -187 25 -250 34 -63 9 -128 16 -145 16 -38 0 -138 33 -143 47 -4 13
101 14 173 1z m7424 -21 c44 -15 39 -35 -10 -42 -53 -7 -99 9 -99 34 0 15 7
19 39 19 21 0 52 -5 70 -11z m-5855 -55 c4 -10 -3 -13 -25 -10 -34 4 -44 11
-35 24 8 13 54 3 60 -14z m96 1 c58 -7 183 -24 210 -29 32 -6 171 -25 227 -30
47 -5 63 -12 63 -28 0 -10 -34 -8 -125 6 -16 3 -61 8 -100 11 -38 4 -73 9 -76
11 -4 2 -29 6 -55 9 -26 3 -51 10 -56 17 -6 10 -8 10 -8 -1 0 -17 -69 -8 -82
11 -6 10 -10 10 -16 1 -11 -18 -62 -4 -62 18 0 13 6 17 23 13 12 -3 38 -7 57
-9z m6430 5 c0 -5 -11 -10 -25 -10 -14 0 -25 5 -25 10 0 6 11 10 25 10 14 0
25 -4 25 -10z m-7285 -58 c5 -3 28 -7 50 -8 22 0 53 -4 68 -8 16 -4 49 -8 75
-10 71 -6 304 -46 330 -56 12 -5 22 -15 22 -21 0 -11 -56 -7 -155 12 -46 8
-125 20 -230 34 -22 3 -55 5 -74 5 -18 0 -39 4 -45 9 -6 4 -44 12 -85 15 -87
9 -101 13 -101 33 0 13 11 14 68 8 37 -4 71 -10 77 -13z m3515 -27 c0 -16 -6
-25 -15 -25 -9 0 -15 9 -15 25 0 16 6 25 15 25 9 0 15 -9 15 -25z m5467 -7
c67 -34 85 -60 59 -86 -14 -14 -21 -14 -53 -3 -73 26 -123 61 -123 86 0 44 36
45 117 3z m-7087 -23 c0 -8 7 -15 16 -15 14 0 14 -3 4 -15 -9 -11 -15 -12 -20
-5 -9 14 -43 -31 -104 -138 -28 -48 -52 -79 -58 -75 -6 3 -8 1 -5 -4 9 -14
-32 -65 -45 -57 -6 4 -8 -2 -3 -17 6 -19 5 -21 -5 -13 -14 13 -4 58 11 49 5
-4 9 2 9 13 0 21 39 104 40 85 0 -7 4 -13 9 -13 4 0 6 11 3 25 -2 15 2 33 10
43 8 9 21 32 29 50 15 34 24 40 32 20 2 -7 8 -10 12 -6 4 4 2 14 -5 23 -11 14
-7 19 13 16 4 0 7 9 8 22 0 12 3 16 6 10 7 -18 23 -16 23 2 0 8 5 15 10 15 6
0 10 -7 10 -15z m-3370 -34 c0 -5 -4 -21 -9 -35 -7 -18 -6 -28 5 -36 37 -31
-10 -57 -50 -27 -16 12 -16 14 3 36 12 13 21 32 21 41 0 9 3 20 7 23 9 10 23
8 23 -2z m2136 0 c5 -5 28 -12 51 -16 32 -5 44 -3 48 7 6 16 55 23 55 8 0 -14
92 -38 193 -50 48 -6 111 -15 138 -20 28 -6 55 -8 59 -5 5 3 11 1 15 -5 3 -5
25 -10 49 -10 23 0 46 -3 50 -7 3 -4 27 -8 51 -11 40 -3 45 -1 45 17 0 24 14
34 53 36 50 3 79 -68 56 -142 -15 -48 -31 -57 -73 -39 -28 11 -36 22 -41 50
-4 19 -14 37 -22 41 -16 6 -265 43 -338 51 -22 2 -62 8 -90 14 -101 22 -95 23
-95 -4 0 -60 -36 -101 -78 -90 -17 5 -23 16 -37 67 -2 4 -3 18 -4 31 -1 22 -7
25 -60 31 -64 7 -99 25 -87 43 9 14 48 16 62 3z m648 -48 c-5 -19 -8 -20 -19
-9 -8 8 -11 23 -8 35 5 19 8 20 19 9 8 -7 11 -23 8 -35z m-3114 -4 c0 -5 -11
-9 -25 -9 -26 0 -34 15 -12 23 16 5 37 -3 37 -14z m5320 -160 c3 -90 3 -171
-1 -179 -4 -8 -10 -75 -13 -149 -4 -74 -8 -137 -11 -139 -2 -3 -10 -2 -18 1
-11 4 -13 32 -9 142 3 99 1 143 -8 160 -9 17 -10 28 -3 37 6 7 13 72 16 145 5
133 10 157 30 150 8 -2 14 -56 17 -168z m-950 137 c0 -13 -29 -31 -37 -22 -4
4 25 36 33 36 2 0 4 -6 4 -14z m-3883 -10 c24 -1 51 -10 61 -19 10 -9 23 -17
29 -17 6 0 16 -7 23 -15 16 -20 106 -20 126 -1 18 19 47 10 59 -17 6 -11 22
-24 36 -28 41 -10 79 -40 79 -60 0 -11 -5 -19 -10 -19 -18 0 -90 40 -90 50 0
18 -41 22 -61 4 -10 -9 -35 -17 -56 -18 -31 -1 -38 -5 -43 -26 -13 -55 -72
-30 -68 28 3 31 -1 37 -37 59 -58 34 -82 43 -119 43 -40 0 -68 26 -45 41 8 5
28 7 44 4 17 -4 49 -8 72 -9z m1960 -11 c8 -22 -6 -33 -17 -15 -13 20 -12 30
0 30 6 0 13 -7 17 -15z m550 -166 c24 -46 53 -91 65 -100 20 -15 166 -50 208
-51 8 0 33 -5 55 -10 65 -17 95 -16 105 3 5 9 6 20 2 24 -4 4 3 2 16 -4 12 -7
20 -16 17 -21 -3 -5 8 -16 25 -25 39 -20 41 -48 3 -40 -16 3 -68 13 -118 21
-49 9 -97 18 -105 21 -8 2 -35 6 -60 8 -25 2 -70 10 -102 17 -52 12 -59 18
-93 68 -36 53 -105 182 -105 196 0 4 10 0 23 -8 12 -8 41 -53 64 -99z m2183
64 c0 -7 -4 -13 -8 -13 -15 0 -32 24 -32 44 0 18 1 19 20 1 11 -10 20 -24 20
-32z m-5435 10 c22 -3 60 -12 84 -19 31 -10 47 -12 55 -4 15 15 42 12 60 -6
34 -33 20 -37 -119 -32 -138 6 -185 19 -185 52 0 16 27 26 50 19 8 -3 33 -7
55 -10z m8175 -53 c0 -5 -4 -10 -10 -10 -5 0 -10 5 -10 10 0 6 5 10 10 10 6 0
10 -4 10 -10z m313 -20 c10 -16 22 -30 28 -30 5 0 9 -9 9 -20 0 -22 -23 -26
-64 -10 -34 13 -46 58 -21 77 26 18 28 17 48 -17z m-3043 -32 c13 -42 8 -58
-20 -58 -29 0 -43 73 -18 98 15 15 22 7 38 -40z m-4159 6 c11 -14 10 -15 -11
-12 -13 1 -25 9 -28 16 -5 17 23 15 39 -4z m3327 -11 c-2 -10 -11 -19 -20 -21
-12 -2 -15 2 -11 17 7 25 36 28 31 4z m-882 -40 c-4 -4 -11 -1 -16 7 -16 25
-11 35 7 17 9 -9 13 -20 9 -24z m-2272 1 c22 -9 20 -24 -3 -24 -21 0 -34 13
-24 24 8 7 8 7 27 0z m-538 -38 c7 -29 -1 -46 -21 -46 -18 0 -38 37 -31 56 9
24 45 17 52 -10z m614 20 c0 -11 -19 -15 -25 -6 -3 5 1 10 9 10 9 0 16 -2 16
-4z m2190 -6 c0 -5 -6 -10 -14 -10 -8 0 -18 5 -21 10 -3 6 3 10 14 10 12 0 21
-4 21 -10z m2036 -11 c13 -21 -14 -33 -43 -20 -22 10 -24 14 -12 22 19 12 46
11 55 -2z m-1676 -7 c0 -4 -9 -8 -20 -8 -11 0 -20 4 -20 8 0 4 9 8 20 8 11 0
20 -4 20 -8z m1350 -17 c0 -8 -7 -15 -15 -15 -8 0 -15 7 -15 15 0 8 7 15 15
15 8 0 15 -7 15 -15z m-3628 -4 c13 -5 36 -12 52 -16 20 -4 26 -9 19 -16 -8
-8 -17 -7 -31 0 -11 6 -32 11 -46 11 -25 0 -41 12 -29 24 8 8 8 8 35 -3z m212
-22 c16 0 35 -7 41 -16 7 -10 33 -19 60 -22 28 -4 50 -12 53 -20 3 -10 -3 -12
-29 -8 -19 4 -70 11 -114 17 -106 15 -139 28 -123 47 8 10 22 13 47 8 20 -3
49 -6 65 -6z m4491 -50 c14 -5 2 -8 -37 -8 -54 -1 -68 6 -51 23 7 7 53 -1 88
-15z m-4290 -9 c3 -5 -1 -10 -10 -10 -9 0 -13 5 -10 10 3 6 8 10 10 10 2 0 7
-4 10 -10z m4489 -3 c16 -12 16 -14 2 -26 -18 -15 -56 -6 -56 14 0 12 13 22
31 24 3 1 13 -5 23 -12z m-4369 -17 c18 -20 17 -20 -13 -20 -42 0 -62 9 -55
26 8 21 47 17 68 -6z m355 -31 c0 -32 -19 -39 -39 -15 -9 11 -10 20 -2 35 16
28 41 16 41 -20z m1900 31 c0 -5 -4 -10 -10 -10 -5 0 -10 5 -10 10 0 6 5 10
10 10 6 0 10 -4 10 -10z m-2190 -22 c0 -4 -9 -8 -21 -8 -11 0 -18 4 -15 8 3 5
12 9 21 9 8 0 15 -4 15 -9z m4530 2 c0 -5 -7 -10 -15 -10 -8 0 -15 5 -15 10 0
6 7 10 15 10 8 0 15 -4 15 -10z m-4450 -10 c12 -8 12 -10 -3 -16 -20 -7 -47 1
-47 16 0 12 30 13 50 0z m4678 -6 c33 -9 27 -24 -10 -24 -42 0 -78 10 -78 21
0 10 54 12 88 3z m-4601 -30 c-9 -9 -28 6 -21 18 4 6 10 6 17 -1 6 -6 8 -13 4
-17z m415 -13 c-5 -33 5 -41 54 -46 53 -5 130 -89 122 -132 -2 -13 -12 -6 -36
28 -42 59 -55 65 -176 88 -58 12 -105 26 -115 36 -17 18 -17 18 93 -1 31 -5
34 -3 44 25 14 39 20 40 14 2z m-232 -2 c0 -13 -27 -11 -36 3 -4 7 -3 8 4 4 7
-4 12 -2 12 4 0 6 5 8 10 5 6 -3 10 -10 10 -16z m-53 -25 c3 -8 0 -21 -6 -27
-10 -9 -16 -8 -26 7 -8 10 -12 23 -9 27 9 15 34 10 41 -7z m1233 -6 c0 -18 -2
-20 -9 -8 -6 8 -7 18 -5 22 9 14 14 9 14 -14z m4032 -12 c22 -16 13 -26 -22
-26 -28 0 -55 21 -43 33 11 11 47 7 65 -7z m108 -27 c0 -11 -7 -11 -39 -2 -23
6 -23 7 -5 13 21 8 44 2 44 -11z m-5880 -27 c0 -12 -23 -32 -37 -32 -17 0 -17
27 0 33 19 8 37 8 37 -1z m138 -32 c39 -36 40 -42 5 -34 -33 8 -63 32 -63 51
0 21 23 15 58 -17z m3047 12 c108 -11 169 -62 74 -62 -22 0 -55 6 -74 14 -19
8 -57 14 -84 14 -31 -1 -59 5 -75 16 -40 25 -22 40 38 31 28 -3 83 -10 121
-13z m3245 -12 c0 -5 -9 -10 -19 -10 -11 0 -23 5 -26 10 -4 6 5 10 19 10 14 0
26 -4 26 -10z m-5890 -32 c14 -10 37 -36 50 -58 21 -35 39 -48 73 -56 4 -1 9
-3 12 -4 3 -1 10 -4 15 -5 6 -1 11 -3 13 -4 1 -1 20 -4 42 -6 22 -2 119 -21
215 -43 179 -42 282 -62 335 -67 17 -2 57 -11 90 -19 33 -9 76 -18 96 -21 20
-2 48 -9 63 -14 14 -6 45 -13 70 -16 24 -4 77 -15 117 -26 41 -10 91 -22 112
-25 21 -3 48 -9 60 -13 12 -4 42 -8 67 -10 46 -2 97 -29 89 -46 -5 -12 -31
-11 -84 4 -22 6 -56 14 -75 16 -19 3 -62 12 -95 19 -64 15 -90 5 -57 -21 15
-12 14 -13 -5 -3 -13 6 -23 16 -23 24 0 20 -208 76 -284 76 l-30 0 25 -27 c14
-16 47 -58 72 -95 26 -36 63 -77 84 -89 45 -28 77 -59 69 -67 -4 -3 -19 6 -34
20 -15 14 -42 34 -59 44 -18 10 -33 23 -33 28 0 5 -21 32 -47 61 -63 68 -103
118 -103 126 0 4 -15 12 -32 18 -33 11 -320 75 -413 92 -67 13 -132 28 -175
40 -19 5 -48 12 -64 14 -16 2 -33 9 -36 15 -4 7 -18 8 -34 4 -27 -7 -76 17
-76 37 0 23 -44 65 -83 80 -50 20 -58 36 -20 42 37 5 62 -2 93 -25z m-210 11
c44 15 70 14 70 -3 0 -28 -169 -58 -197 -35 -22 19 -15 31 15 25 17 -4 35 -1
47 8 13 9 22 11 26 4 5 -7 17 -7 39 1z m2098 -23 c-2 -13 -12 -22 -25 -24 -19
-3 -23 1 -23 21 0 14 6 27 13 30 22 7 38 -5 35 -27z m930 -3 c2 -8 -5 -13 -17
-13 -12 0 -21 6 -21 16 0 18 31 15 38 -3z m-3458 -5 c0 -20 -66 -68 -92 -68
-20 1 -18 5 22 40 46 41 70 50 70 28z m3680 -71 c24 -39 78 -119 118 -177 79
-112 118 -180 104 -180 -16 0 -112 112 -140 163 -15 28 -48 74 -74 103 -27 28
-48 55 -48 59 0 4 -9 18 -20 32 -25 32 -27 73 -2 73 10 0 34 -27 62 -73z
m-2518 22 c17 -9 18 -13 7 -20 -10 -6 -8 -9 9 -9 12 0 25 7 28 15 9 21 41 19
54 -5 8 -15 17 -18 39 -14 18 4 33 0 44 -10 9 -9 18 -12 22 -7 8 14 35 2 35
-16 0 -9 6 -13 14 -10 8 3 17 1 20 -6 2 -7 5 -4 5 6 1 12 5 15 13 11 7 -5 21
-9 30 -9 22 -2 24 -4 32 -32 6 -18 2 -22 -25 -28 -18 -4 -35 -3 -41 3 -7 7
-16 7 -29 -1 -14 -9 -26 -7 -57 11 -22 12 -46 22 -55 22 -8 0 -20 6 -27 14 -6
8 -18 12 -26 9 -24 -9 -66 6 -60 22 3 8 2 15 -3 15 -5 0 -11 -10 -14 -22 l-6
-22 -20 22 c-10 13 -21 18 -23 12 -5 -17 -35 -1 -42 22 -3 12 -3 24 -1 27 6
11 56 11 77 0z m-277 -9 c3 -5 -1 -10 -10 -10 -9 0 -13 5 -10 10 3 6 8 10 10
10 2 0 7 -4 10 -10z m-277 -30 c3 -20 1 -22 -10 -12 -8 6 -18 9 -21 5 -4 -3
-7 4 -7 16 0 31 34 24 38 -9z m5512 -25 c14 -13 42 -30 62 -38 20 -9 42 -25
48 -37 15 -28 4 -93 -20 -122 -16 -20 -26 -23 -81 -20 -80 3 -186 19 -221 33
-31 12 -53 58 -44 92 9 37 44 76 89 99 82 42 117 40 167 -7z m-2775 13 c2 -13
6 -39 7 -58 3 -30 9 -38 43 -56 28 -14 47 -34 62 -65 28 -56 28 -79 2 -159
-37 -111 -36 -110 -85 -103 l-44 6 0 -41 c0 -23 -7 -47 -15 -56 -19 -18 -19
-27 -1 -61 17 -33 11 -54 -21 -66 -13 -5 -28 -20 -33 -34 -5 -14 -14 -25 -19
-25 -17 0 -23 20 -11 35 9 11 10 26 2 55 -5 22 -8 48 -7 58 16 78 16 78 30 58
13 -17 15 -16 28 17 8 19 20 38 26 41 6 4 11 20 11 35 0 32 20 54 42 46 28
-11 38 19 35 104 -4 91 -15 113 -47 93 -17 -10 -21 -10 -25 0 -2 7 -12 33 -21
58 -24 66 -27 95 -15 119 16 28 49 27 56 -1z m3577 -105 c82 -85 96 -147 46
-200 -25 -26 -40 -27 -188 -12 -163 16 -207 27 -246 61 -42 37 -45 74 -8 117
29 35 76 51 149 51 28 0 70 7 95 14 80 26 101 21 152 -31z m-6692 -8 c0 -8 -4
-15 -10 -15 -5 0 -10 7 -10 15 0 8 5 15 10 15 6 0 10 -7 10 -15z m1760 -81 c0
-8 -7 -14 -15 -14 -15 0 -21 21 -9 33 10 9 24 -2 24 -19z m6165 -63 c99 -50
112 -60 132 -100 61 -121 -48 -196 -208 -142 -92 30 -127 55 -149 104 -25 54
-25 98 0 146 21 41 60 63 95 54 11 -3 70 -31 130 -62z m-7510 49 c3 -5 1 -10
-4 -10 -6 0 -11 5 -11 10 0 6 2 10 4 10 3 0 8 -4 11 -10z m249 -17 c4 -9 1
-20 -6 -24 -12 -7 -25 9 -27 34 -2 14 27 7 33 -10z m1387 -57 c10 -20 25 -27
88 -40 42 -9 110 -25 151 -36 41 -11 108 -22 148 -26 72 -7 88 -18 59 -43 -14
-11 -30 -9 -192 23 -38 7 -124 24 -190 36 -156 29 -174 39 -142 81 26 34 64
37 78 5z m517 -35 c35 -32 38 -41 21 -58 -8 -8 -19 -8 -40 0 -25 10 -29 17
-29 49 0 21 3 38 8 38 4 0 22 -13 40 -29z m1840 -69 c4 -28 -24 -40 -45 -19
-14 13 -14 19 -3 32 18 22 44 15 48 -13z m-619 -51 c37 -31 35 -51 -5 -51 -34
0 -84 51 -84 85 0 26 0 26 28 10 15 -9 42 -29 61 -44z m5332 33 c51 -46 66
-160 27 -209 -50 -63 -107 -64 -234 -4 -52 24 -64 35 -78 69 -15 37 -15 44 -1
70 21 41 54 60 138 81 79 19 121 17 148 -7z m-480 -4 c30 -17 24 -40 -11 -40
-22 0 -30 5 -30 18 0 32 11 37 41 22z m-6881 -82 c17 -32 18 -39 5 -35 -10 5
-15 0 -15 -13 0 -17 -3 -18 -19 -8 -14 9 -19 24 -19 59 -1 59 16 57 48 -3z
m-115 -8 c8 -7 15 -16 15 -21 0 -17 -102 9 -114 29 -8 13 81 7 99 -8z m2388 3
c15 -14 38 -18 106 -19 138 -1 204 -23 166 -54 -13 -11 -25 -10 -70 4 -53 16
-55 16 -96 -5 -25 -12 -53 -19 -71 -17 -23 4 -33 -1 -45 -18 -20 -32 -70 -60
-116 -67 -24 -4 -53 -19 -77 -41 -42 -38 -79 -52 -107 -41 -16 6 -13 11 17 36
19 16 40 29 48 29 25 0 77 33 109 70 18 20 46 43 62 50 l31 12 -20 25 c-11 14
-20 32 -20 39 0 20 59 18 83 -3z m1256 -10 c11 -21 -3 -53 -24 -53 -8 0 -19 9
-25 21 -21 37 28 69 49 32z m-3591 -22 c3 -8 -1 -12 -9 -9 -7 2 -15 10 -17 17
-3 8 1 12 9 9 7 -2 15 -10 17 -17z m1472 -18 c0 -27 -3 -34 -11 -26 -7 7 -9
23 -5 37 9 37 16 32 16 -11z m-2535 7 c-3 -5 -11 -10 -16 -10 -6 0 -7 5 -4 10
3 6 11 10 16 10 6 0 7 -4 4 -10z m4194 -78 c45 -22 59 -45 42 -66 -21 -25 -49
-19 -93 22 -60 57 -28 84 51 44z m-1635 -33 c16 -23 104 -58 147 -59 34 0 75
-32 64 -50 -5 -9 -25 -11 -68 -7 -33 3 -70 1 -83 -3 -19 -8 -26 -4 -42 21 -10
17 -30 36 -43 43 -25 12 -35 37 -25 62 8 21 33 17 50 -7z m2022 -53 c7 -19
-13 -56 -31 -56 -16 0 -35 30 -35 54 0 21 58 22 66 2z m340 -40 c39 -18 85
-37 102 -41 48 -10 152 -137 152 -186 0 -29 -72 13 -170 99 -66 59 -88 63
-188 37 -31 -8 -69 -17 -84 -20 -19 -4 -44 -27 -83 -80 -30 -41 -62 -75 -71
-75 -8 0 -38 22 -66 48 -50 48 -56 72 -19 72 26 0 42 23 46 65 4 46 9 51 38
37 27 -13 122 -23 142 -15 9 3 15 18 15 39 0 27 5 37 23 44 43 17 92 10 163
-24z m-5196 -17 c0 -14 -7 -19 -29 -19 -36 0 -46 13 -26 33 19 20 55 10 55
-14z m3211 1 c23 -13 25 -36 3 -44 -17 -7 -64 18 -64 33 0 22 29 27 61 11z
m-3114 -16 c1 -5 -6 -20 -16 -33 -21 -28 -51 -23 -51 9 0 30 58 51 67 24z
m2723 -81 c-1 -18 -30 -45 -74 -68 -57 -30 -61 -30 -111 -5 -22 11 -47 20 -55
20 -9 0 -20 3 -24 7 -9 9 86 32 139 33 22 1 49 5 60 10 25 11 65 12 65 3z
m-926 -99 c19 -18 13 -34 -13 -34 -22 0 -45 25 -36 40 9 15 31 12 49 -6z
m1858 -1 c23 -21 26 -101 3 -109 -8 -3 -35 4 -59 16 -35 16 -49 19 -65 11 -27
-15 -51 -14 -51 3 0 17 22 26 61 26 19 0 29 5 29 15 0 18 35 55 52 55 6 0 20
-7 30 -17z m208 -68 c27 -33 -28 -145 -72 -145 -22 0 -22 -2 3 73 29 87 44
102 69 72z m-4234 -132 c-3 -21 -5 -39 -6 -40 0 -2 -7 -3 -15 -3 -18 0 -21 50
-3 68 21 21 30 13 24 -25z m-468 -21 c2 -12 -1 -22 -6 -22 -15 0 -34 28 -27
40 10 17 30 6 33 -18z m3969 -49 c5 -15 -52 -45 -75 -41 -14 3 -12 8 11 31 27
28 57 33 64 10z m3553 -8 c16 -19 4 -35 -25 -35 -27 0 -39 14 -31 35 7 19 40
19 56 0z m-2571 -74 c20 -13 5 -29 -37 -40 -47 -14 -61 1 -26 28 29 23 42 25
63 12z m-5031 -64 c2 -10 -3 -17 -11 -17 -18 0 -39 24 -30 34 12 12 38 2 41
-17z m4899 8 c15 -41 -80 -61 -113 -24 -16 17 -16 22 -4 29 26 16 110 12 117
-5z m902 -71 c54 -45 32 -107 -24 -70 -26 17 -41 56 -31 81 8 21 20 19 55 -11z"/>
<path d="M8941 6338 c-11 -4 -39 -9 -61 -12 -22 -3 -44 -7 -49 -10 -5 -3 -74
-15 -152 -27 -79 -11 -151 -25 -159 -29 -9 -5 -36 -11 -60 -14 -48 -6 -85 -13
-85 -16 0 -1 -16 -3 -35 -4 -19 -1 -41 -5 -47 -9 -7 -5 -17 -5 -23 -2 -5 3
-18 1 -29 -4 -14 -8 -21 -8 -24 2 -3 9 -7 9 -20 -2 -9 -7 -27 -11 -39 -8 -12
4 -27 2 -33 -3 -10 -8 -162 -40 -215 -44 -21 -2 -26 -9 -31 -42 -9 -51 -4 -57
40 -49 20 3 70 10 111 15 41 5 104 14 140 19 36 6 83 13 105 16 22 4 76 14
120 22 90 17 104 18 160 8 l40 -7 3 -57 2 -56 -42 48 c-40 45 -45 47 -73 38
-16 -5 -84 -17 -150 -26 -66 -8 -163 -22 -215 -31 -52 -8 -111 -17 -130 -20
-19 -3 -53 -8 -74 -10 -21 -2 -41 -6 -43 -8 -3 -2 -6 -91 -9 -198 -2 -106 -6
-258 -9 -338 -16 -421 -15 -506 9 -494 6 3 4 0 -4 -8 -17 -14 -24 -58 -11 -58
17 0 34 32 34 61 0 16 4 29 9 29 4 0 8 8 8 18 0 13 2 14 9 3 5 -8 3 -24 -5
-40 -8 -14 -14 -31 -14 -38 0 -6 -11 -20 -23 -30 -21 -16 -24 -28 -26 -87 -1
-38 -3 -72 -5 -75 -2 -3 -7 -109 -11 -236 -3 -126 -8 -289 -10 -361 -4 -132
-4 -132 18 -126 12 3 30 14 40 24 15 15 22 16 33 7 17 -14 9 -29 -14 -29 -15
0 -15 -2 -2 -10 9 -5 19 -5 24 0 5 5 18 5 30 1 11 -4 120 -7 241 -7 204 1 220
2 217 19 -2 12 4 17 18 17 17 0 20 -4 15 -20 -5 -16 -2 -18 16 -15 13 3 26 9
29 15 4 6 10 143 14 303 3 161 9 346 12 412 2 66 7 221 9 345 5 233 13 315 30
315 12 0 19 -31 10 -53 -3 -9 -8 -156 -11 -327 -3 -170 -7 -341 -9 -380 -7
-150 -8 -383 -1 -394 12 -18 64 -14 69 7 4 16 5 16 6 -1 1 -16 14 -17 166 -14
113 3 166 1 169 -7 3 -7 5 -7 5 2 1 6 12 12 26 12 21 0 25 5 25 30 0 17 5 30
11 30 8 0 8 4 0 13 -6 9 -9 45 -6 98 6 118 15 440 21 799 3 168 7 328 9 355 8
112 16 352 18 550 l2 210 -47 0 c-26 1 -56 -3 -67 -7z m-294 -220 c-3 -8 -6
-5 -6 6 -1 11 2 17 5 13 3 -3 4 -12 1 -19z m-17 -9 c0 -5 -4 -9 -10 -9 -5 0
-10 7 -10 16 0 8 5 12 10 9 6 -3 10 -10 10 -16z m-23 -121 c-3 -7 -5 -2 -5 12
0 14 2 19 5 13 2 -7 2 -19 0 -25z m10 -55 c-3 -10 -5 -4 -5 12 0 17 2 24 5 18
2 -7 2 -21 0 -30z m-29 -48 c-3 -3 -9 2 -12 12 -6 14 -5 15 5 6 7 -7 10 -15 7
-18z m42 -129 c-10 -35 -13 -38 -22 -22 -6 11 -8 39 -3 70 4 28 8 62 10 76 4
42 7 38 17 -25 7 -43 6 -71 -2 -99z m103 59 c-3 -9 -8 -14 -10 -11 -3 3 -2 9
2 15 9 16 15 13 8 -4z m-246 -17 c-3 -8 -6 -5 -6 6 -1 11 2 17 5 13 3 -3 4
-12 1 -19z m280 -4 c-3 -3 -12 -4 -19 -1 -8 3 -5 6 6 6 11 1 17 -2 13 -5z
m-277 -35 c0 -6 -4 -7 -10 -4 -5 3 -10 11 -10 16 0 6 5 7 10 4 6 -3 10 -11 10
-16z m-535 -29 c3 -5 1 -10 -4 -10 -6 0 -11 5 -11 10 0 6 2 10 4 10 3 0 8 -4
11 -10z m793 -57 c-10 -2 -18 -12 -18 -20 0 -9 -3 -14 -6 -10 -12 11 5 37 23
36 17 -1 17 -2 1 -6z m-135 -11 c2 7 4 1 4 -14 0 -16 -1 -28 -2 -28 -2 0 -11
12 -21 28 -14 21 -14 24 -2 14 13 -10 17 -10 21 0z m-113 -12 c0 -5 -2 -10 -4
-10 -3 0 -8 5 -11 10 -3 6 -1 10 4 10 6 0 11 -4 11 -10z m-543 -70 c-1 -11 -7
-20 -14 -20 -17 0 -17 27 0 33 6 3 13 6 14 6 1 1 1 -8 0 -19z m1 -42 c-2 -5
-8 -9 -13 -9 -5 0 -11 4 -13 9 -1 5 4 9 13 9 9 0 14 -4 13 -9z m619 -70 c-6
-23 -15 -38 -25 -38 -11 0 -14 9 -10 45 3 25 12 52 19 61 12 15 14 14 19 -7 4
-13 2 -41 -3 -61z m-589 -337 c0 -20 -10 -38 -34 -62 -19 -18 -34 -28 -34 -21
0 7 5 12 11 12 8 0 8 4 -1 15 -6 8 -8 20 -4 26 5 9 11 7 21 -6 15 -21 18 -8 4
14 -11 18 4 51 23 51 7 0 13 -12 14 -29z m632 -4 c0 -5 -4 -5 -10 -2 -5 3 -10
14 -10 23 0 15 2 15 10 2 5 -8 10 -19 10 -23z m30 13 c0 -5 -4 -10 -10 -10 -5
0 -10 5 -10 10 0 6 5 10 10 10 6 0 10 -4 10 -10z m-159 -108 c-16 -5 -27 6
-36 38 -7 25 -7 25 20 -5 18 -19 23 -31 16 -33z m150 11 c13 -16 12 -17 -3 -4
-10 7 -18 15 -18 17 0 8 8 3 21 -13z m-611 -18 c-7 -9 -15 -13 -18 -10 -3 2 1
11 8 20 7 9 15 13 18 10 3 -2 -1 -11 -8 -20z m610 -17 c0 -6 -6 -5 -15 2 -8 7
-15 14 -15 16 0 2 7 1 15 -2 8 -4 15 -11 15 -16z m-10 -28 c0 -5 -2 -10 -4
-10 -3 0 -8 5 -11 10 -3 6 -1 10 4 10 6 0 11 -4 11 -10z m-596 -35 c3 -8 1
-15 -4 -15 -6 0 -10 7 -10 15 0 8 2 15 4 15 2 0 6 -7 10 -15z m417 -22 c13
-16 12 -17 -3 -4 -10 7 -18 15 -18 17 0 8 8 3 21 -13z m-571 -114 c0 -5 -4 -9
-10 -9 -5 0 -10 7 -10 16 0 8 5 12 10 9 6 -3 10 -10 10 -16z m241 -328 c-7 -5
-10 -14 -7 -20 4 -6 2 -11 -3 -11 -12 0 -15 23 -4 33 3 4 11 7 17 7 6 0 5 -4
-3 -9z m49 -71 c0 -6 -9 -5 -20 2 -11 7 -20 16 -20 21 0 4 9 3 20 -3 11 -6 20
-15 20 -20z m77 -65 c0 -8 -4 -12 -9 -9 -4 3 -8 9 -8 15 0 5 4 9 8 9 5 0 9 -7
9 -15z m353 -15 c0 -5 -4 -10 -10 -10 -5 0 -10 5 -10 10 0 6 5 10 10 10 6 0
10 -4 10 -10z m-337 -60 c9 -11 17 -28 17 -38 0 -10 -7 -5 -16 15 -9 18 -23
34 -32 36 -14 4 -14 5 -2 6 9 0 23 -8 33 -19z m-13 -30 c0 -5 -4 -10 -10 -10
-5 0 -10 5 -10 10 0 6 5 10 10 10 6 0 10 -4 10 -10z m-87 -47 c4 -3 0 -15 -10
-25 -9 -11 -11 -18 -5 -18 7 0 12 -4 12 -10 0 -19 -19 -10 -26 12 -4 13 -2 24
5 26 6 2 9 8 5 13 -6 10 9 12 19 2z"/>
<path d="M7760 3958 c-16 -17 -28 -33 -27 -35 2 -1 58 -5 125 -8 113 -6 122
-5 122 12 -1 43 -26 56 -110 60 -80 4 -81 3 -110 -29z"/>
<path d="M8330 2520 c0 -5 5 -10 11 -10 5 0 7 5 4 10 -3 6 -8 10 -11 10 -2 0
-4 -4 -4 -10z"/>
<path d="M8315 2490 c-3 -5 -1 -10 4 -10 6 0 11 5 11 10 0 6 -2 10 -4 10 -3 0
-8 -4 -11 -10z"/>
<path d="M10456 7318 c-24 -33 -20 -42 23 -61 32 -14 44 -15 65 -6 14 7 26 18
26 24 0 17 -33 45 -53 45 -9 0 -19 5 -22 10 -10 16 -23 12 -39 -12z"/>
</g>
</svg>
